<?xml version="1.0" encoding="UTF-8" standalone="no"?>
<svg
   xmlns:dc="http://purl.org/dc/elements/1.1/"
   xmlns:cc="http://creativecommons.org/ns#"
   xmlns:rdf="http://www.w3.org/1999/02/22-rdf-syntax-ns#"
   xmlns:svg="http://www.w3.org/2000/svg"
   xmlns="http://www.w3.org/2000/svg"
   id="svg8"
   version="1.1"
   viewBox="0 0 46.002361 41.738598"
   height="41.738598mm"
   width="46.002361mm">
  <defs
     id="defs2" />
  <metadata
     id="metadata5">
    <rdf:RDF>
      <cc:Work
         rdf:about="">
        <dc:format>image/svg+xml</dc:format>
        <dc:type
           rdf:resource="http://purl.org/dc/dcmitype/StillImage" />
        <dc:title></dc:title>
      </cc:Work>
    </rdf:RDF>
  </metadata>
  <g
     transform="translate(-72.113311,-73.671786)"
     id="layer1">
    <path
       d="m 92.98214,96.672615 c 1.137067,0.606437 -0.256476,1.831938 -1.007938,1.889881 -2.036415,0.157019 -3.086669,-2.192944 -2.771823,-3.905756 0.563185,-3.063818 4.023425,-4.455779 6.803573,-3.653767 4.079978,1.176985 5.855408,5.875104 4.535708,9.701387 -1.758946,5.09984 -7.733828,7.26744 -12.599207,5.41766 C 81.81987,103.79426 79.2567,96.526219 81.642856,90.624991 84.532811,83.477814 93.102428,80.5173 100.0377,83.443451 c 8.17298,3.448369 11.5319,13.324464 8.06348,21.292659 -4.00442,9.1996 -15.190101,12.95763 -24.190476,8.94543 C 73.683905,109.12263 69.526299,96.625268 74.083334,86.593242 79.19564,75.338824 93.006158,70.781284 104.06945,75.883929 c 12.28235,5.664904 17.24009,20.789666 11.59126,32.883931"
       id="path10"
       style="fill:none;fill-rule:evenodd;stroke:#000000;stroke-width:0.26458332" />
  </g>
</svg>
