<?xml version="1.0" encoding="UTF-8" standalone="no"?>
<svg
   xmlns:dc="http://purl.org/dc/elements/1.1/"
   xmlns:cc="http://creativecommons.org/ns#"
   xmlns:rdf="http://www.w3.org/1999/02/22-rdf-syntax-ns#"
   xmlns:svg="http://www.w3.org/2000/svg"
   xmlns="http://www.w3.org/2000/svg"
   xmlns:sodipodi="http://sodipodi.sourceforge.net/DTD/sodipodi-0.dtd"
   xmlns:inkscape="http://www.inkscape.org/namespaces/inkscape"
   id="svg8"
   version="1.1"
   viewBox="0 0 45.548813 41.622181"
   height="41.622181mm"
   width="45.548813mm"
   sodipodi:docname="drawing.svg"
   inkscape:version="0.92.4 (5da689c313, 2019-01-14)">
  <sodipodi:namedview
     pagecolor="#ffffff"
     bordercolor="#666666"
     borderopacity="1"
     objecttolerance="10"
     gridtolerance="10"
     guidetolerance="10"
     inkscape:pageopacity="0"
     inkscape:pageshadow="2"
     inkscape:window-width="1920"
     inkscape:window-height="1051"
     id="namedview7"
     showgrid="false"
     inkscape:zoom="4.2313761"
     inkscape:cx="67.999123"
     inkscape:cy="84.34122"
     inkscape:window-x="-9"
     inkscape:window-y="-9"
     inkscape:window-maximized="1"
     inkscape:current-layer="svg8"
     fit-margin-top="0"
     fit-margin-left="0"
     fit-margin-right="0"
     fit-margin-bottom="0" />
  <defs
     id="defs2" />
  <metadata
     id="metadata5">
    <rdf:RDF>
      <cc:Work
         rdf:about="">
        <dc:format>image/svg+xml</dc:format>
        <dc:type
           rdf:resource="http://purl.org/dc/dcmitype/StillImage" />
        <dc:title></dc:title>
      </cc:Work>
    </rdf:RDF>
  </metadata>
  <path
     sodipodi:type="spiral"
     style="fill:none;fill-rule:evenodd;stroke:#000000;stroke-width:0.26458335"
     id="path40"
     sodipodi:cx="22.322823"
     sodipodi:cy="19.040606"
     sodipodi:expansion="1"
     sodipodi:revolution="5"
     sodipodi:radius="22.338228"
     sodipodi:argument="-34.385929"
     sodipodi:t0="0"
     d="m 22.322823,19.040606 c -0.662134,-0.114744 -0.172001,-0.949153 0.190711,-1.100509 0.982929,-0.410166 1.886659,0.58225 2.010307,1.481932 0.221176,1.60932 -1.265342,2.863512 -2.773154,2.920104 -2.212774,0.08305 -3.858939,-1.95395 -3.8299,-4.064375 0.0387,-2.812864 2.644023,-4.861658 5.355595,-4.739698 3.412236,0.153475 5.868022,3.334677 5.649495,6.646817 -0.264667,4.011444 -4.025632,6.876474 -7.938037,6.559292 -4.610634,-0.373788 -7.886233,-4.716772 -7.46909,-9.229258 0.481608,-5.209844 5.408035,-8.8968627 10.520479,-8.3788866 5.809084,0.5885574 9.908104,6.0993856 9.288684,11.8116996 C 32.633017,27.356077 26.537112,31.867513 20.224992,31.146205 13.217343,30.345415 8.293184,23.663939 9.1167144,16.752064 10.023063,9.1450959 17.290484,3.8079797 24.802076,4.7339883 33.008382,5.7456393 38.758637,13.599293 37.729949,21.710571 36.613198,30.516231 28.173083,36.67977 19.462145,35.548241 10.057117,34.326551 3.4801772,25.299794 4.7146783,15.989216 6.0411751,5.984808 15.654723,-1.0056284 25.564924,0.33195226 36.168722,1.7631479 43.572735,11.96361 42.131985,22.473419 40.596181,33.676616 29.808702,41.494272 18.699298,39.950277 6.8966929,38.30994 -1.3346623,26.935358 0.31264223,15.226369"
     transform="matrix(1.0724176,0,0,1.0343114,0.03165481,-0.03686313)" />
</svg>
