<?xml version="1.0" encoding="UTF-8" standalone="no"?>
<svg
   xmlns:dc="http://purl.org/dc/elements/1.1/"
   xmlns:cc="http://creativecommons.org/ns#"
   xmlns:rdf="http://www.w3.org/1999/02/22-rdf-syntax-ns#"
   xmlns:svg="http://www.w3.org/2000/svg"
   xmlns="http://www.w3.org/2000/svg"
   xmlns:sodipodi="http://sodipodi.sourceforge.net/DTD/sodipodi-0.dtd"
   xmlns:inkscape="http://www.inkscape.org/namespaces/inkscape"
   id="svg8"
   version="1.1"
   viewBox="0 0 45.548813 41.622181"
   height="41.622181mm"
   width="45.548813mm"
   sodipodi:docname="drawing2.svg"
   inkscape:version="0.92.4 (5da689c313, 2019-01-14)">
  <sodipodi:namedview
     pagecolor="#ffffff"
     bordercolor="#666666"
     borderopacity="1"
     objecttolerance="10"
     gridtolerance="10"
     guidetolerance="10"
     inkscape:pageopacity="0"
     inkscape:pageshadow="2"
     inkscape:window-width="1920"
     inkscape:window-height="1051"
     id="namedview7"
     showgrid="false"
     inkscape:zoom="2.9920347"
     inkscape:cx="62.988534"
     inkscape:cy="109.71072"
     inkscape:window-x="-9"
     inkscape:window-y="-9"
     inkscape:window-maximized="1"
     inkscape:current-layer="svg8"
     fit-margin-top="0"
     fit-margin-left="0"
     fit-margin-right="0"
     fit-margin-bottom="0" />
  <defs
     id="defs2" />
  <metadata
     id="metadata5">
    <rdf:RDF>
      <cc:Work
         rdf:about="">
        <dc:format>image/svg+xml</dc:format>
        <dc:type
           rdf:resource="http://purl.org/dc/dcmitype/StillImage" />
        <dc:title />
      </cc:Work>
    </rdf:RDF>
  </metadata>
  <path
     inkscape:connector-curvature="0"
     style="fill:none;stroke:#000000;stroke-width:0.1164382;stroke-opacity:1"
     d="m 44.743282,25.759945 v 0 l 0.257659,-1.462374 0.161297,-1.463473 0.06585,-1.458274 -0.02828,-1.446922 -0.120692,-1.42954 L 44.8681,17.093035 44.569219,15.715581 44.185286,14.372429 43.719433,13.06877 43.175121,11.809538 42.556103,10.59938 41.866377,9.44267 41.110228,8.3434409 40.292135,7.3054219 39.416796,6.3319991 38.489085,5.4262123 37.514022,4.5907396 36.496765,3.8279045 35.442564,3.1396572 34.356744,2.5275814 33.244678,1.9928821 32.111774,1.5363945 30.963431,1.1585826 29.805021,0.8595397 28.641863,0.6390048 27.479206,0.4963562 l -1.157009,-0.065728 -1.14634,0.00989 -1.130782,0.083882 -1.110507,0.1559362 -1.085697,0.22575 -1.056555,0.2930505 -1.023298,0.3575664 -0.986161,0.4190492 -0.945397,0.4772759 -0.901266,0.5320297 -0.854042,0.5831311 -0.804017,0.6303971 -0.751481,0.6736869 -0.696732,0.7128808 -0.640081,0.7478756 -0.581835,0.7785784 -0.522314,0.8049443 -0.461824,0.8269244 -0.400686,0.8445163 -0.339205,0.857723 -0.277688,0.866572 -0.216437,0.871118 -0.155765,0.87143 -0.09594,0.867593 -0.03724,0.859733 0.02006,0.847965 0.07571,0.832441 0.129455,0.813324 0.181078,0.790795 0.230372,0.765037 0.277123,0.736265 0.321149,0.704698 0.36231,0.670556 0.400449,0.634074 0.435435,0.595504 0.467133,0.55512 0.495499,0.513141 0.520438,0.469858 0.54191,0.425506 0.559887,0.380368 0.57435,0.334707 0.58531,0.288773 0.59279,0.242846 0.59684,0.197153 0.597525,0.151956 0.594922,0.107501 0.58913,0.064 0.580263,0.0217 0.568448,-0.0192 0.553832,-0.0585 0.536564,-0.09601 0.516826,-0.131551 0.494785,-0.164974 0.470639,-0.196117 0.444586,-0.224864 0.416831,-0.251114 0.387582,-0.274741 0.357079,-0.295673 0.325518,-0.313865 0.293142,-0.329258 0.260169,-0.341825 0.226826,-0.35156 0.193346,-0.358461 0.159948,-0.362561 0.126834,-0.363901 0.09426,-0.362526 0.0624,-0.358525 0.03146,-0.351976 0.0016,-0.342983 -0.02691,-0.331672 -0.05396,-0.318163 -0.0794,-0.3026 -0.103062,-0.285133 -2.123238,-4.460493 0.285131,-0.103062 0.3026,-0.0794 0.318164,-0.05396 0.33167,-0.02691 0.342984,0.0016 0.351974,0.03145 0.358528,0.0624 0.362527,0.09426 0.363901,0.126832 0.362561,0.159949 0.35846,0.193347 0.351559,0.226824 0.341824,0.26017 0.329259,0.293142 0.313866,0.325518 0.295673,0.35708 0.274741,0.387582 0.251103,0.416832 0.224865,0.444588 0.196118,0.47064 0.164973,0.494784 0.131548,0.516827 0.09601,0.536566 0.0585,0.553828 0.0192,0.568451 -0.0217,0.580262 -0.064,0.589131 -0.107502,0.594921 -0.151956,0.597525 -0.197154,0.596843 -0.242844,0.592788 -0.288775,0.58531 -0.334705,0.57435 -0.380369,0.559887 -0.425508,0.541911 -0.469855,0.520439 -0.513146,0.495491 -0.555128,0.467122 -0.595502,0.435436 -0.634081,0.400441 -0.670556,0.36231 -0.704699,0.32115 -0.736268,0.277125 -0.765047,0.230354 -0.790794,0.181082 -0.813324,0.129454 -0.832443,0.0757 -0.847966,0.02006 -0.859732,-0.03723 -0.86758,-0.09589 -0.87143,-0.155767 L 16.140706,30.160308 15.274134,29.882619 14.416405,29.543426 13.57189,29.142741 12.744965,28.680915 11.940022,28.158603 11.161443,27.576766 10.413568,26.936687 9.7006854,26.239956 9.0269974,25.488475 8.3965994,24.684459 7.8134681,23.830419 7.2814407,22.92915 6.8041612,21.983755 6.3851173,20.997593 6.0275509,19.974295 5.7345007,18.917741 5.5087491,17.832044 5.3528153,16.721535 l -0.083883,-1.130782 -0.00989,-1.146339 0.06573,-1.15701 0.1426475,-1.162658 v 0 L 0.85174421,10.178241 v 0 l -0.25765578,1.462377 -0.16130029,1.463469 -0.0658503,1.458277 0.0282743,1.446917 0.12069011,1.429544 0.2110198,1.406326 0.29887865,1.377454 0.3839381,1.343154 0.4658484,1.303658 0.5443091,1.259234 0.6190303,1.21015 0.6897249,1.156714 0.7561567,1.099226 0.8180923,1.038021 0.8753383,0.973422 0.9277102,0.905788 0.9750587,0.835471 1.0172584,0.762839 1.0542019,0.688245 1.085821,0.61208 1.112061,0.5347 1.132903,0.456483 1.148346,0.377808 1.158423,0.299069 1.163157,0.220537 1.162657,0.142644 1.157009,0.06573 1.146339,-0.0099 1.130784,-0.08388 1.110508,-0.155935 1.085699,-0.225753 1.056553,-0.29305 1.023299,-0.357566 0.986161,-0.419045 0.945397,-0.477273 0.90127,-0.532028 0.854045,-0.583123 0.804015,-0.630399 0.751483,-0.673688 0.69673,-0.712879 0.640081,-0.747878 0.581837,-0.778578 0.522315,-0.804942 0.461821,-0.826925 0.400688,-0.844516 0.339201,-0.857723 0.277691,-0.866574 0.216434,-0.871122 0.155763,-0.871431 0.09594,-0.867595 0.03724,-0.85973 -0.02006,-0.847966 -0.0757,-0.83244 -0.129456,-0.813328 -0.18108,-0.790791 -0.230367,-0.765038 -0.277123,-0.736266 -0.321151,-0.704701 -0.362309,-0.670553 -0.400441,-0.634081 -0.435408,-0.595517 -0.467128,-0.555124 -0.495493,-0.513147 -0.520438,-0.469856 -0.541911,-0.425506 -0.559889,-0.38037 -0.574348,-0.334706 -0.585309,-0.288781 -0.592787,-0.242845 -0.596841,-0.197154 -0.597527,-0.151958 -0.594923,-0.107499 -0.589129,-0.064 -0.580262,-0.0217 -0.568448,0.0192 -0.553832,0.0585 -0.536567,0.09601 -0.516824,0.131548 -0.494784,0.164973 -0.470641,0.196118 -0.444586,0.224865 -0.416836,0.251104 -0.387581,0.274741 -0.35708,0.295675 -0.325518,0.313865 -0.293142,0.329257 -0.26017,0.341825 -0.226825,0.351558 -0.193348,0.35846 -0.159947,0.362564 -0.126835,0.363901 -0.09426,0.362526 -0.0624,0.358525 -0.03146,0.351974 -0.0016,0.342987 0.02691,0.331671 0.05396,0.318163 0.07941,0.302594 0.103063,0.285135 2.123238,4.460491 -0.285131,0.103062 -0.302599,0.0794 -0.318164,0.05396 -0.331678,0.02689 -0.342987,-0.0016 -0.351972,-0.03146 -0.358526,-0.06239 -0.362528,-0.09426 -0.3639,-0.126834 -0.362562,-0.159948 -0.358462,-0.193345 -0.351557,-0.226826 -0.341826,-0.260169 -0.329258,-0.293142 -0.313865,-0.325518 -0.295674,-0.357081 -0.274741,-0.387581 -0.251112,-0.416828 -0.224865,-0.444588 -0.196118,-0.47064 -0.164973,-0.494784 -0.131551,-0.516825 -0.09601,-0.536566 -0.0585,-0.553831 -0.0192,-0.568449 0.0217,-0.580262 0.064,-0.589131 0.107498,-0.594921 0.15196,-0.597525 0.197152,-0.596841 0.242849,-0.592796 0.288774,-0.58531 0.334706,-0.574353 0.38037,-0.559885 0.425508,-0.541913 0.469852,-0.5204373 0.51315,-0.4954926 0.555126,-0.4671239 0.595505,-0.4354355 0.634075,-0.4004446 0.670555,-0.3623096 0.704696,-0.3211553 0.736268,-0.2771185 0.765038,-0.2303714 0.790793,-0.1810793 0.813324,-0.1294542 0.832444,-0.075707 0.847964,-0.020058 0.859732,0.037239 0.867595,0.095938 0.871428,0.155765 0.871116,0.2164364 0.866575,0.27769 0.857721,0.3392026 0.844517,0.4006864 0.826927,0.4618235 0.804942,0.5223134 0.778578,0.5818363 0.747873,0.6400806 0.712884,0.696732 0.67369,0.751479 0.630394,0.80402 0.583128,0.854043 0.532027,0.901269 0.477273,0.945396 0.419046,0.986163 0.357565,1.023296 0.293051,1.056556 0.225749,1.085699 0.155937,1.110508 0.08388,1.130784 0.0099,1.146336 -0.06573,1.15701 -0.142647,1.162658 -0.220537,1.163157 -0.299042,1.158409 -0.377811,1.148343 -0.45649,1.132905 -0.5347,1.112061 -0.612076,1.08582 -0.688247,1.054202 -0.762834,1.017259 -0.835474,0.975058 -0.90579,0.92771 -0.973421,0.875338 -1.038021,0.81809 -1.099226,0.756159 -1.156715,0.689724 -1.210155,0.619018 -1.259234,0.544312 -1.303665,0.465858 -1.343155,0.383934 -1.377452,0.298881 -1.406323,0.211017 -1.429545,0.12069 -1.446915,0.0283 -1.458279,-0.06585 -1.463467,-0.161297 -1.462379,-0.257654 v 0"
     id="path465" />
</svg>
