<?xml version="1.0" encoding="UTF-8" standalone="no"?>
<svg
   xmlns:dc="http://purl.org/dc/elements/1.1/"
   xmlns:cc="http://creativecommons.org/ns#"
   xmlns:rdf="http://www.w3.org/1999/02/22-rdf-syntax-ns#"
   xmlns:svg="http://www.w3.org/2000/svg"
   xmlns="http://www.w3.org/2000/svg"
   id="svg8"
   version="1.1"
   viewBox="0 0 35.348896 27.138403"
   height="27.138403mm"
   width="35.348896mm">
  <defs
     id="defs2" />
  <metadata
     id="metadata5">
    <rdf:RDF>
      <cc:Work
         rdf:about="">
        <dc:format>image/svg+xml</dc:format>
        <dc:type
           rdf:resource="http://purl.org/dc/dcmitype/StillImage" />
        <dc:title></dc:title>
      </cc:Work>
    </rdf:RDF>
  </metadata>
  <g
     transform="translate(-74.381836,-78.52192)"
     id="layer1">
    <path
       id="path14"
       d="m 74.518737,83.003954 c 0,-0.133635 0,-0.26727 0,-0.400904 0,-0.02227 -0.01,-0.0469 0,-0.06682 0.01409,-0.02817 0.05273,-0.03865 0.06682,-0.06682 0.01992,-0.03984 -0.01992,-0.09379 0,-0.133635 0.01409,-0.02817 0.05273,-0.03865 0.06682,-0.06682 0.01,-0.01992 -0.01575,-0.05107 0,-0.06682 0.01575,-0.01575 0.05107,0.01575 0.06682,0 0.01575,-0.01575 -0.01575,-0.05107 0,-0.06682 0.01575,-0.01575 0.05107,0.01575 0.06682,0 0.01366,-0.01366 -0.01324,-0.17396 0,-0.200452 0.01409,-0.02817 0.05273,-0.03865 0.06682,-0.06682 0.01,-0.01992 -0.01575,-0.05107 0,-0.06682 0.01575,-0.01575 0.05107,0.01575 0.06682,0 0.0315,-0.0315 -0.01992,-0.09379 0,-0.133635 0.02817,-0.05635 0.105462,-0.07729 0.133635,-0.133635 0.01,-0.01992 0,-0.04454 0,-0.06682 0.02227,-0.02227 0.05273,-0.03864 0.06682,-0.06682 0.01,-0.01992 -0.01575,-0.05107 0,-0.06682 0.01575,-0.01575 0.05107,0.01575 0.06682,0 0.01575,-0.01575 -0.01,-0.0469 0,-0.06682 0.01409,-0.02817 0.05273,-0.03864 0.06682,-0.06682 0.01992,-0.03984 -0.01992,-0.09379 0,-0.133634 0.139039,-0.278078 -0.0046,0.07143 0.133635,-0.06682 0.01575,-0.01575 -0.01,-0.0469 0,-0.06682 0.01409,-0.02817 0.05273,-0.03865 0.06682,-0.06682 0.01992,-0.03984 -0.0315,-0.102136 0,-0.133634 0.01575,-0.01575 0.05107,0.01575 0.06682,0 0.01575,-0.01575 -0.01575,-0.05107 0,-0.06682 0.01575,-0.01575 0.05107,0.01575 0.06682,0 0.01575,-0.01575 -0.01575,-0.05107 0,-0.06682 0.01575,-0.01575 0.05107,0.01575 0.06682,0 0.01575,-0.01575 -0.01575,-0.05107 0,-0.06682 0.01575,-0.01575 0.05107,0.01575 0.06682,0 0.01575,-0.01575 -0.01,-0.0469 0,-0.06682 0.04009,-0.08018 0.160362,-0.120271 0.200453,-0.200452 0.01,-0.01992 -0.01575,-0.05107 0,-0.06682 0.01575,-0.01575 0.0469,0.01 0.06682,0 0.102336,-0.05117 0.05225,-0.11907 0.133635,-0.200452 0.01575,-0.01575 0.0469,0.01 0.06682,0 0.01774,-0.0089 0.191582,-0.182712 0.200452,-0.200453 0.01,-0.01992 -0.01575,-0.05107 0,-0.06682 0.01575,-0.01575 0.0469,0.01 0.06682,0 0.02817,-0.01409 0.03865,-0.05273 0.06682,-0.06682 0.01992,-0.01 0.05107,0.01575 0.06682,0 0.138248,-0.138248 -0.21126,0.0054 0.06682,-0.133635 0.03984,-0.01992 0.102137,0.0315 0.133635,0 0.01575,-0.01575 -0.01575,-0.05107 0,-0.06682 0.01575,-0.01575 0.05107,0.01575 0.06682,0 0.01575,-0.01575 -0.01575,-0.05107 0,-0.06682 0.01575,-0.01575 0.0469,0.01 0.06682,0 0.05635,-0.02817 0.07729,-0.105462 0.133635,-0.133635 0.01992,-0.01 0.05107,0.01575 0.06682,0 0.01575,-0.01575 -0.01575,-0.05107 0,-0.06682 0.0315,-0.0315 0.102136,0.0315 0.133634,0 0.0315,-0.0315 -0.0315,-0.102137 0,-0.133635 0.03341,-0.03341 0.167044,0.03341 0.200453,0 0.01575,-0.01575 -0.01575,-0.05107 0,-0.06682 0.138247,-0.138248 -0.0054,0.211261 0.133634,-0.06682 0.01,-0.01992 -0.01575,-0.05107 0,-0.06682 0.01608,-0.01608 0.251191,0.01608 0.26727,0 0.01575,-0.01575 -0.01575,-0.05107 0,-0.06682 0.0315,-0.0315 0.09379,0.01992 0.133635,0 0.02817,-0.01409 0.03864,-0.05273 0.06682,-0.06682 0.03984,-0.01992 0.102137,0.0315 0.133635,0 0.01575,-0.01575 -0.01575,-0.05107 0,-0.06682 0.01575,-0.01575 0.04454,0 0.06682,0 0.02227,0 0.04454,0 0.06682,0 0.178179,0 0.356359,0 0.534539,0 0.0162,0 0.198303,-0.0021 0.200452,0 0.01575,0.01575 -0.01,0.0469 0,0.06682 0.139039,0.278078 -0.0046,-0.07143 0.133634,0.06682 0.01575,0.01575 -0.01,0.0469 0,0.06682 0.04009,0.08018 0.160362,0.120271 0.200453,0.200452 0.01,0.01992 -0.01,0.0469 0,0.06682 0.02817,0.05634 0.105462,0.07729 0.133634,0.133634 0.01992,0.03984 -0.01992,0.09379 0,0.133635 0.06151,0.123012 0.138946,0.01062 0.200453,0.133635 0.01763,0.03527 -0.0194,0.171356 0,0.200452 0.03494,0.05242 0.105461,0.07729 0.133634,0.133635 0.01992,0.03984 -0.01409,0.09137 0,0.133635 0.01,0.02988 0.05273,0.03864 0.06682,0.06682 0.01,0.01992 -0.007,0.04569 0,0.06682 0.01575,0.04725 0.05107,0.08639 0.06682,0.133635 0.007,0.02113 -0.01575,0.05107 0,0.06682 0.01575,0.01575 0.05686,-0.01992 0.06682,0 0.01992,0.03984 -0.01409,0.09138 0,0.133635 0.01,0.02988 0.05273,0.03865 0.06682,0.06682 0.021,0.042 -0.021,0.225273 0,0.267269 0.01409,0.02817 0.05273,0.03865 0.06682,0.06682 0.02012,0.04025 -0.01947,0.342503 0,0.400905 0.01575,0.04725 0.05107,0.08639 0.06682,0.133635 0.01409,0.04226 0,0.08909 0,0.133634 0,0.08909 0,0.17818 0,0.26727 0,0.267269 0,0.534539 0,0.801809 0,0.289542 0,0.579084 0,0.868626 0,0.02227 0,0.04454 0,0.06682 0,0.02227 0.01575,0.05107 0,0.06682 -0.01575,0.01575 -0.05107,-0.01575 -0.06682,0 -0.01575,0.01575 0,0.04454 0,0.06682 0,0.03569 0.0096,0.314963 0,0.334087 -0.01409,0.02817 -0.05273,0.03864 -0.06682,0.06682 -0.01,0.01992 0,0.04454 0,0.06682 0,0.04454 0,0.08909 0,0.133635 0,0.17818 0,0.356359 0,0.534539 0,0.03009 0.01017,0.180117 0,0.200452 -0.01409,0.02817 -0.05273,0.03865 -0.06682,0.06682 -0.01,0.01992 0.01,0.0469 0,0.06682 -0.01409,0.02817 -0.05273,0.03865 -0.06682,0.06682 -0.01,0.01992 0,0.04454 0,0.06682 0,0.02227 0,0.04454 0,0.06682 0,0.111362 0,0.222725 0,0.334087 0,0.04454 0.01992,0.09379 0,0.133635 -0.01,0.01992 -0.05107,-0.01575 -0.06682,0 -0.01787,0.01786 0.02131,0.291466 0,0.334087 -0.01409,0.02817 -0.05273,0.03864 -0.06682,0.06682 -0.01992,0.03984 0.01992,0.09379 0,0.133635 -0.01409,0.02817 -0.05273,0.03864 -0.06682,0.06682 -0.01,0.01992 0.0044,0.04498 0,0.06682 -0.01801,0.09005 -0.05383,0.17636 -0.06682,0.267269 -0.0094,0.06615 0,0.133635 0,0.200452 0,0.02227 0.01,0.0469 0,0.06682 -0.01409,0.02817 -0.05273,0.03864 -0.06682,0.06682 -0.02673,0.05345 0.02673,0.146998 0,0.200452 -0.01409,0.02817 -0.05273,0.03865 -0.06682,0.06682 -0.01992,0.03984 0.01992,0.09379 0,0.133634 -0.01409,0.02817 -0.05273,0.03865 -0.06682,0.06682 -0.01,0.01992 0,0.04454 0,0.06682 0,0.07893 0.01324,0.361171 0,0.400904 -0.01,0.02988 -0.05273,0.03864 -0.06682,0.06682 -0.01487,0.02973 0.01019,0.236708 0,0.267269 -0.01,0.02988 -0.05273,0.03865 -0.06682,0.06682 -0.01519,0.03037 0.0058,0.15963 0,0.200452 -0.01916,0.134116 -0.04766,0.266788 -0.06682,0.400904 -0.01751,0.122552 0,0.273808 0,0.400904 0,0.04454 0,0.08909 0,0.133635 0,0.02227 0.01,0.0469 0,0.06682 -0.01409,0.02817 -0.05686,0.03694 -0.06682,0.06682 -0.01409,0.04226 0.01992,0.09379 0,0.133635 -0.01,0.01992 -0.05107,-0.01575 -0.06682,0 -0.01575,0.01575 0,0.04454 0,0.06682 0,0.02227 0,0.04454 0,0.06682 0,0.133635 0,0.26727 0,0.400905 0,0.02227 0,0.04454 0,0.06682 0,0.02227 0.01575,0.05107 0,0.06682 -0.01575,0.01575 -0.05686,-0.01992 -0.06682,0 -0.03984,0.07968 0.02817,0.182752 0,0.26727 -0.01,0.02988 -0.05273,0.03865 -0.06682,0.06682 -0.02189,0.04378 0.02068,0.359542 0,0.400905 -0.01409,0.02817 -0.05273,0.03864 -0.06682,0.06682 -0.01918,0.03836 0.01793,0.347105 0,0.400904 -0.01,0.02988 -0.05273,0.03865 -0.06682,0.06682 -0.02071,0.04142 0.0205,0.293078 0,0.334087 -0.01,0.01992 -0.05107,-0.01575 -0.06682,0 -0.01575,0.01575 0,0.04454 0,0.06682 0,0.08909 0,0.17818 0,0.26727 0,0.02227 0,0.04454 0,0.06682 0,0.02227 0.01,0.0469 0,0.06682 -0.01409,0.02817 -0.05273,0.03864 -0.06682,0.06682 -0.01,0.01992 0,0.04454 0,0.06682 0,0.04597 0.01297,0.361998 0,0.400904 -0.0315,0.09449 -0.102137,0.172776 -0.133635,0.26727 -0.01328,0.03984 0,0.336167 0,0.400904 0,0.02227 0,0.04454 0,0.06682 0,0.02227 0.01236,0.04828 0,0.06682 -0.03494,0.05242 -0.09869,0.08122 -0.133634,0.133635 -0.0194,0.0291 0.01763,0.165182 0,0.200452 -0.01409,0.02817 -0.05273,0.03864 -0.06682,0.06682 -0.01487,0.02973 0.01019,0.236708 0,0.26727 -0.01,0.02988 -0.05273,0.03864 -0.06682,0.06682 -0.01812,0.03625 0.01828,0.248987 0,0.26727 -0.01575,0.01575 -0.05107,-0.01575 -0.06682,0 -3.44e-4,3.44e-4 5.55e-4,0.198218 0,0.200452 -0.01208,0.04832 -0.05107,0.08639 -0.06682,0.133635 -0.01976,0.0593 0.02188,0.290333 0,0.334086 -0.01409,0.02817 -0.05918,0.03626 -0.06682,0.06682 -0.01621,0.06482 0,0.133635 0,0.200452 0,0.111362 0,0.222725 0,0.334087 0,0.03009 0.01017,0.180117 0,0.200452 -0.01409,0.02817 -0.05273,0.03865 -0.06682,0.06682 -0.02673,0.05345 0.02673,0.146999 0,0.200453 -0.01409,0.02817 -0.05273,0.03864 -0.06682,0.06682 -0.01992,0.03984 0.01992,0.09379 0,0.133635 -0.01409,0.02817 -0.05273,0.03864 -0.06682,0.06682 -0.0096,0.01912 0,0.298392 0,0.334087 0,0.200452 0,0.400904 0,0.601356 0,0.01588 0.0075,0.252294 0,0.26727 -0.01409,0.02817 -0.05273,0.03865 -0.06682,0.06682 -0.021,0.042 0.021,0.225273 0,0.26727 -0.01409,0.02817 -0.05686,0.03694 -0.06682,0.06682 -0.02113,0.06339 0,0.133635 0,0.200452 0,0.111363 0,0.222725 0,0.334087 0,0.03009 0.01017,0.180118 0,0.200452 -0.08257,0.165133 -0.06682,-0.02306 -0.06682,0.133635 0,0.111362 0,0.222725 0,0.334087 0,0.02227 0.01575,0.05107 0,0.06682 -0.01575,0.01575 -0.05107,-0.01575 -0.06682,0 -0.0315,0.0315 0.01992,0.09379 0,0.133635 -0.01409,0.02817 -0.05273,0.03865 -0.06682,0.06682 -0.01208,0.02417 0,0.287615 0,0.334085 0,0.0245 0.0027,0.26459 0,0.26728 -0.01575,0.0157 -0.05107,-0.0158 -0.06682,0 -0.01575,0.0157 0,0.0445 0,0.0668 0,0.0264 0.01427,0.30555 0,0.33409 -0.01409,0.0282 -0.05273,0.0386 -0.06682,0.0668 -0.01971,0.0394 0.01532,0.15449 0,0.20045 -0.01575,0.0473 -0.05107,0.0864 -0.06682,0.13363 -0.01926,0.0578 0.02126,0.29157 0,0.33409 -0.01409,0.0282 -0.05273,0.0386 -0.06682,0.0668 -0.02308,0.0461 0.02345,0.31063 0,0.33408 -0.01575,0.0157 -0.05107,-0.0157 -0.06682,0 -0.0027,0.003 0,0.24274 0,0.26728 0,0.18502 -0.06682,-0.0514 -0.06682,0.13363 0,0.0349 0.0088,0.2497 0,0.26727 -0.01409,0.0282 -0.05273,0.0386 -0.06682,0.0668 -0.01,0.0199 0.01,0.0469 0,0.0668 -0.01409,0.0282 -0.05273,0.0386 -0.06682,0.0668 -0.01,0.0199 0,0.0446 0,0.0668 0,0.0223 0,0.0445 0,0.0668 0,0.11137 0,0.22273 0,0.33409 0,0.0223 0,0.0446 0,0.0668 0,0.0223 0.01575,0.0511 0,0.0668 -0.01575,0.0157 -0.05107,-0.0157 -0.06682,0 -0.01575,0.0157 0.02227,0.0668 0,0.0668 -0.02227,0 0,-0.0445 0,-0.0668 0,-0.0446 0,-0.0891 0,-0.13364 0,-0.0223 0,-0.0445 0,-0.0668 0,-0.0223 -0.01,-0.0469 0,-0.0668 0.09832,-0.19663 0.06682,0.10372 0.06682,-0.20046 0,-0.11551 -0.007,-0.15656 0.06682,-0.26726 0.08151,-0.12226 0.08519,-0.007 0.133635,-0.20046 0.0108,-0.0432 -0.01409,-0.0914 0,-0.13363 0.01,-0.0299 0.04454,-0.0446 0.06682,-0.0668 0,-0.0445 -0.0108,-0.0904 0,-0.13363 0.05765,-0.23061 0.04631,-0.0549 0.133635,-0.20046 0.05125,-0.0854 0.102137,-0.17277 0.133635,-0.26726 0.02817,-0.0845 -0.02817,-0.18276 0,-0.26727 0.01,-0.0299 0.04935,-0.0406 0.06682,-0.0668 0.02763,-0.0414 0.03919,-0.0922 0.06682,-0.13364 0.07514,-0.11271 0.16005,-0.10566 0.200453,-0.26727 0.0108,-0.0432 0,-0.0891 0,-0.13363 0,-0.0223 -0.01,-0.0469 0,-0.0668 0.152898,-0.30579 -0.02769,0.28354 0.133634,-0.20045 0.02904,-0.0871 0.02575,-0.18513 0.06682,-0.26727 0.02817,-0.0564 0.08909,-0.0891 0.133635,-0.13364 0.02227,-0.0223 0.05686,-0.0369 0.06682,-0.0668 0.01409,-0.0423 -0.01409,-0.0914 0,-0.13364 0.01,-0.0299 0.05152,-0.0393 0.06682,-0.0668 0.09675,-0.174149 0.17818,-0.356366 0.26727,-0.534546 0.04454,-0.08909 0.07387,-0.187585 0.133635,-0.26727 0.01336,-0.01782 0.05107,0.01575 0.06682,0 0.01977,-0.01977 -0.02069,-0.225882 0,-0.267269 0.01409,-0.02817 0.04935,-0.04061 0.06682,-0.06682 0.02763,-0.04144 0.03919,-0.0922 0.06682,-0.133634 0.03494,-0.05242 0.113713,-0.07387 0.133634,-0.133635 0.01409,-0.04226 0,-0.08909 0,-0.133635 0,-0.02227 -0.01,-0.0469 0,-0.06682 0.04009,-0.08018 0.160362,-0.120271 0.200453,-0.200452 0.01,-0.01992 -0.007,-0.04569 0,-0.06682 0.01575,-0.04725 0.04454,-0.08909 0.06682,-0.133635 0.02227,-0.04454 0.03919,-0.0922 0.06682,-0.133634 0.01747,-0.02621 0.05686,-0.03694 0.06682,-0.06682 0.01409,-0.04226 -0.0108,-0.09042 0,-0.133634 0.01208,-0.04832 0.04454,-0.08909 0.06682,-0.133635 0.02227,-0.04454 0.0316,-0.09842 0.06682,-0.133635 0.01575,-0.01575 0.05107,0.01575 0.06682,0 0.07678,-0.07678 0.06682,-0.118168 0.06682,-0.200452 0,-0.02227 -0.007,-0.04569 0,-0.06682 0.01575,-0.04725 0.04454,-0.08909 0.06682,-0.133635 0.02227,-0.04454 0.03919,-0.0922 0.06682,-0.133635 0.03494,-0.05242 0.105462,-0.07729 0.133635,-0.133635 0.03576,-0.07153 -0.05786,-0.142593 0.06682,-0.267269 0.01575,-0.01575 0.04455,0 0.06682,0 0.02227,-0.04454 0.05107,-0.08639 0.06682,-0.133635 0.007,-0.02113 0,-0.04454 0,-0.06682 0.02227,-0.06682 0.03532,-0.137456 0.06682,-0.200452 0.01409,-0.02817 0.05686,-0.03694 0.06682,-0.06682 0.01409,-0.04226 -0.0108,-0.09042 0,-0.133635 0.08066,-0.322657 0.03175,0.0033 0.133634,-0.200452 0.01,-0.01992 0,-0.04454 0,-0.06682 0,-0.04454 -0.01409,-0.09138 0,-0.133635 0.01,-0.02988 0.04935,-0.04061 0.06682,-0.06682 0.02763,-0.04144 0.04454,-0.08909 0.06682,-0.133635 0.02227,-0.04454 0.05107,-0.08639 0.06682,-0.133635 0.007,-0.02113 -0.007,-0.04569 0,-0.06682 0.0315,-0.09449 0.08909,-0.17818 0.133634,-0.26727 0.02227,-0.04454 0.05474,-0.08532 0.06682,-0.133634 0.0108,-0.04322 0,-0.08909 0,-0.133635 0.04454,-0.08909 0.09664,-0.174788 0.133634,-0.26727 0.0083,-0.02068 0,-0.04454 0,-0.06682 0,-0.04454 -0.0108,-0.09042 0,-0.133635 0.08066,-0.322657 0.03175,0.0033 0.133635,-0.200452 0.01,-0.01992 0,-0.04455 0,-0.06682 0,-0.04455 -0.01409,-0.09138 0,-0.133635 0.01,-0.02988 0.04935,-0.04061 0.06682,-0.06682 0.225032,-0.337548 5.29e-4,-0.0016 0.06682,-0.200452 0.01575,-0.04725 0.05107,-0.08639 0.06682,-0.133634 0.007,-0.02113 -0.01,-0.0469 0,-0.06682 0.01409,-0.02817 0.05686,-0.03694 0.06682,-0.06682 0.01409,-0.04226 0,-0.08909 0,-0.133635 0,-0.02227 -0.01,-0.0469 0,-0.06682 0.01409,-0.02817 0.05273,-0.03865 0.06682,-0.06682 0.01,-0.01992 -0.01,-0.0469 0,-0.06682 0.01409,-0.02817 0.05273,-0.03865 0.06682,-0.06682 0.021,-0.042 -0.021,-0.225274 0,-0.26727 0.01409,-0.02817 0.05273,-0.03865 0.06682,-0.06682 0.01,-0.01992 -0.01,-0.0469 0,-0.06682 0.01409,-0.02817 0.05273,-0.03864 0.06682,-0.06682 0.01,-0.01992 0,-0.04454 0,-0.06682 0,-0.06682 -0.01621,-0.135629 0,-0.200452 0.0076,-0.03056 0.05273,-0.03865 0.06682,-0.06682 0.01992,-0.03984 -0.01409,-0.09138 0,-0.133635 0.161328,-0.483986 -0.01927,0.105345 0.133634,-0.200452 0.02108,-0.04215 -0.02108,-0.291934 0,-0.334087 0.01409,-0.02817 0.05273,-0.03865 0.06682,-0.06682 0.01992,-0.03984 -0.0108,-0.09042 0,-0.133635 0.03416,-0.136658 0.110477,-0.261958 0.133635,-0.400905 0.01099,-0.06591 -0.01621,-0.135629 0,-0.200452 0.0076,-0.03056 0.04935,-0.04061 0.06682,-0.06682 0.02763,-0.04144 0.05107,-0.08639 0.06682,-0.133635 0.01409,-0.04226 -0.01409,-0.09137 0,-0.133635 0.01575,-0.04725 0.05107,-0.08639 0.06682,-0.133634 0.01409,-0.04226 -0.01409,-0.09138 0,-0.133635 0.01575,-0.04725 0.05107,-0.08639 0.06682,-0.133635 0.007,-0.02113 -0.01,-0.0469 0,-0.06682 0.01409,-0.02817 0.05686,-0.03694 0.06682,-0.06682 1.01e-4,-2.91e-4 -6.3e-5,-0.200388 0,-0.200452 0.01575,-0.01575 0.05686,0.01992 0.06682,0 0.02988,-0.05976 -0.02988,-0.140689 0,-0.200452 0.01409,-0.02817 0.05273,-0.03864 0.06682,-0.06682 0.01,-0.01992 -0.01575,-0.05107 0,-0.06682 0.01575,-0.01575 0.05107,0.01575 0.06682,0 0.01828,-0.01828 -0.01812,-0.231022 0,-0.267269 0.01409,-0.02817 0.05273,-0.03865 0.06682,-0.06682 0.01992,-0.03984 -0.0315,-0.102137 0,-0.133635 0.01575,-0.01575 0.05107,0.01575 0.06682,0 0.138109,-0.138109 0.03939,-0.09074 0.06682,-0.200452 0.01708,-0.06833 0.04973,-0.132124 0.06682,-0.200453 0.0054,-0.02161 0,-0.04454 0,-0.06682 0.02227,-0.04454 0.05107,-0.08639 0.06682,-0.133635 0.007,-0.02113 -0.01,-0.0469 0,-0.06682 0.01409,-0.02817 0.05273,-0.03865 0.06682,-0.06682 0.01992,-0.03984 -0.0315,-0.102137 0,-0.133635 0.17818,0 -0.02227,0.02227 0.06682,-0.06682 0.01575,-0.01575 0.05107,0.01575 0.06682,0 0.03341,-0.03341 -0.03341,-0.167043 0,-0.200452 0.01575,-0.01575 0.05107,0.01575 0.06682,0 0.124676,-0.124676 0.03105,-0.195742 0.06682,-0.267269 0.02817,-0.05634 0.105463,-0.07729 0.133635,-0.133635 0.01,-0.01992 -0.01,-0.0469 0,-0.06682 0.01409,-0.02817 0.05686,-0.03694 0.06682,-0.06682 0,-0.304172 -0.0315,-0.0038 0.06682,-0.200452 0.01,-0.01992 -0.01575,-0.05107 0,-0.06682 0.01575,-0.01575 0.05107,0.01575 0.06682,0 0.01575,-0.01575 -0.007,-0.04569 0,-0.06682 0.01575,-0.04725 0.05474,-0.08532 0.06682,-0.133634 0.0081,-0.03255 -0.01767,-0.231939 0,-0.26727 0.02817,-0.05635 0.105462,-0.07729 0.133634,-0.133635 0.01,-0.01992 -0.007,-0.04569 0,-0.06682 0.01575,-0.04725 0.05705,-0.0848 0.06682,-0.133635 0.0131,-0.06552 0,-0.133635 0,-0.200452 0,-0.02227 -0.01,-0.0469 0,-0.06682 0.01409,-0.02817 0.04935,-0.04061 0.06682,-0.06682 0.02763,-0.04144 0.0316,-0.09842 0.06682,-0.133634 0.01575,-0.01575 0.05686,0.01992 0.06682,0 0.0122,-0.0244 -0.013,-0.321082 0,-0.334087 0.01575,-0.01575 0.05107,0.01575 0.06682,0 0.260771,-0.260771 -0.01547,-0.03589 0.06682,-0.200452 0.170009,-0.340019 -0.03457,0.3065 0.06682,-0.200453 0.112516,-0.56258 10e-4,-0.0021 0.133635,-0.267269 0.01,-0.01992 -0.007,-0.04569 0,-0.06682 0.01575,-0.04725 0.05107,-0.08639 0.06682,-0.133634 0.03341,-0.100226 -0.06682,-0.06682 0,-0.200452 0.01,-0.01992 0.05107,0.01575 0.06682,0 0.01575,-0.01575 -0.01,-0.0469 0,-0.06682 0.01409,-0.02817 0.05686,-0.03694 0.06682,-0.06682 0.01409,-0.04226 -0.01409,-0.09138 0,-0.133635 0.01,-0.02988 0.05918,-0.03626 0.06682,-0.06682 0.01621,-0.06482 0,-0.133635 0,-0.200452 0,-0.02227 -0.01,-0.0469 0,-0.06682 0.02817,-0.05635 0.105463,-0.07729 0.133635,-0.133635 0.01,-0.01992 -0.01575,-0.05107 0,-0.06682 0.01575,-0.01575 0.05107,0.01575 0.06682,0 0.01977,-0.01977 -0.02069,-0.225882 0,-0.26727 0.01409,-0.02817 0.05273,-0.03864 0.06682,-0.06682 0.02673,-0.05345 -0.02673,-0.146998 0,-0.200452 0.01,-0.01992 0.05107,0.01575 0.06682,0 0.02345,-0.02345 -0.02308,-0.287934 0,-0.334087 0.01409,-0.02817 0.05273,-0.03865 0.06682,-0.06682 0.01,-0.01992 -0.01,-0.0469 0,-0.06682 0.01409,-0.02817 0.05273,-0.03865 0.06682,-0.06682 0.01992,-0.03984 -0.0315,-0.102137 0,-0.133635 0.01575,-0.01575 0.05107,0.01575 0.06682,0 0.02069,-0.02069 -0.02069,-0.313397 0,-0.334087 0.01575,-0.01575 0.05107,0.01575 0.06682,0 0.0315,-0.0315 -0.01992,-0.09379 0,-0.133635 0.01409,-0.02817 0.05273,-0.03864 0.06682,-0.06682 0.01992,-0.03984 -0.01409,-0.09138 0,-0.133635 0.01575,-0.04725 0.05107,-0.08639 0.06682,-0.133635 0.007,-0.02113 -0.007,-0.04569 0,-0.06682 0.01575,-0.04725 0.05107,-0.08639 0.06682,-0.133635 0.007,-0.02113 -0.01,-0.0469 0,-0.06682 0.01409,-0.02817 0.05273,-0.03865 0.06682,-0.06682 0.01,-0.01992 -0.01,-0.0469 0,-0.06682 0.01409,-0.02817 0.05273,-0.03864 0.06682,-0.06682 0.01,-0.01992 -0.01,-0.0469 0,-0.06682 0.01409,-0.02817 0.05273,-0.03864 0.06682,-0.06682 0.02673,-0.05345 -0.02673,-0.146998 0,-0.200452 0.01409,-0.02817 0.05273,-0.03865 0.06682,-0.06682 0.01,-0.01992 -0.01575,-0.05107 0,-0.06682 0.01575,-0.01575 0.05107,0.01575 0.06682,0 0.0315,-0.0315 -0.0315,-0.102137 0,-0.133635 0.01575,-0.01575 0.05107,0.01575 0.06682,0 0.0315,-0.0315 -0.01992,-0.09379 0,-0.133634 0.01409,-0.02817 0.05273,-0.03865 0.06682,-0.06682 0.01,-0.01992 -0.01575,-0.05107 0,-0.06682 0.01575,-0.01575 0.05107,0.01575 0.06682,0 0.01366,-0.01366 -0.01324,-0.17396 0,-0.200452 0.01409,-0.02817 0.05273,-0.03864 0.06682,-0.06682 0.01,-0.01992 -0.01575,-0.05107 0,-0.06682 0.01575,-0.01575 0.05107,0.01575 0.06682,0 0.01575,-0.01575 -0.01575,-0.05107 0,-0.06682 0.01575,-0.01575 0.05107,0.01575 0.06682,0 0.03341,-0.03341 -0.03341,-0.167044 0,-0.200453 0.01575,-0.01575 0.05107,0.01575 0.06682,0 0.01575,-0.01575 -0.01575,-0.05107 0,-0.06682 0.01575,-0.01575 0.05107,0.01575 0.06682,0 0.01575,-0.01575 -0.01575,-0.05107 0,-0.06682 0.01575,-0.01575 0.05107,0.01575 0.06682,0 0.01575,-0.01575 -0.01575,-0.05107 0,-0.06682 0.01575,-0.01575 0.04454,0 0.06682,0 0.02454,0 0.26458,-0.0027 0.267269,0 0.01575,0.01575 -0.01575,0.05107 0,0.06682 0.0315,0.0315 0.102137,-0.0315 0.133635,0 0.01575,0.01575 -0.01575,0.05107 0,0.06682 0.0315,0.0315 0.102137,-0.0315 0.133635,0 0.01575,0.01575 -0.01575,0.05107 0,0.06682 0.01575,0.01575 0.05107,-0.01575 0.06682,0 0.01575,0.01575 -0.01575,0.05107 0,0.06682 0.01575,0.01575 0.05107,-0.01575 0.06682,0 0.01575,0.01575 -0.01575,0.05107 0,0.06682 0.01575,0.01575 0.05107,-0.01575 0.06682,0 0.01575,0.01575 -0.01575,0.05107 0,0.06682 0.01575,0.01575 0.05107,-0.01575 0.06682,0 0.01575,0.01575 -0.01575,0.05107 0,0.06682 0.01575,0.01575 0.05107,-0.01575 0.06682,0 0.01575,0.01575 -0.01575,0.05107 0,0.06682 0.01575,0.01575 0.05107,-0.01575 0.06682,0 0.138248,0.138248 -0.211261,-0.0054 0.06682,0.133635 0.01992,0.01 0.05107,-0.01575 0.06682,0 0.01575,0.01575 -0.007,0.04569 0,0.06682 0.01575,0.04725 0.0316,0.09842 0.06682,0.133635 0.01575,0.01575 0.05107,-0.01575 0.06682,0 0.01575,0.01575 -0.01,0.0469 0,0.06682 0.02817,0.05634 0.113713,0.07387 0.133634,0.133634 0.01409,0.04226 -0.01992,0.09379 0,0.133635 0.01,0.01992 0.0469,-0.01 0.06682,0 0.02817,0.01409 0.05273,0.03864 0.06682,0.06682 0.01,0.01992 0,0.04454 0,0.06682 0.02227,0 0.05686,-0.01992 0.06682,0 0.01992,0.03984 -0.01409,0.09138 0,0.133635 0.06952,0.208558 0.04454,-0.02227 0.133634,0.06682 0.0315,0.0315 -0.0315,0.102137 0,0.133635 0.138248,0.138247 -0.0054,-0.211261 0.133635,0.06682 0.01,0.01992 -0.01,0.0469 0,0.06682 0.01409,0.02817 0.05273,0.03865 0.06682,0.06682 0.01992,0.03984 -0.0315,0.102137 0,0.133635 0.01575,0.01575 0.04454,0 0.06682,0 0.02227,0.02227 0.04935,0.04061 0.06682,0.06682 0.02763,0.04144 0.05107,0.08639 0.06682,0.133635 0.01409,0.04226 -0.0315,0.102137 0,0.133635 0.01575,0.01575 0.05107,-0.01575 0.06682,0 0.01575,0.01575 -0.01575,0.05107 0,0.06682 0.01575,0.01575 0.05107,-0.01575 0.06682,0 0.0315,0.0315 -0.01409,0.09138 0,0.133635 0.01575,0.04725 0.0316,0.09842 0.06682,0.133634 0.01575,0.01575 0.05686,-0.01992 0.06682,0 0.01992,0.03984 -0.01409,0.09138 0,0.133635 0.01992,0.05976 0.105462,0.07729 0.133635,0.133635 0.01,0.01992 0,0.04454 0,0.06682 0.02227,0.04454 0.03919,0.0922 0.06682,0.133635 0.01747,0.02621 0.05273,0.03865 0.06682,0.06682 0.01992,0.03984 -0.0315,0.102136 0,0.133634 0.01575,0.01575 0.05107,-0.01575 0.06682,0 0.01366,0.01366 -0.01324,0.17396 0,0.200453 0.01409,0.02817 0.05273,0.03864 0.06682,0.06682 0.01,0.01992 -0.01575,0.05107 0,0.06682 0.01575,0.01575 0.05107,-0.01575 0.06682,0 0.0315,0.0315 -0.0315,0.102137 0,0.133635 0.01575,0.01575 0.05107,-0.01575 0.06682,0 0.003,0.003 0,0.302583 0,0.334087 0,0.02227 -0.01575,0.05107 0,0.06682 0.01575,0.01575 0.05686,-0.01992 0.06682,0 0.01992,0.03984 -0.0108,0.09042 0,0.133635 0.01208,0.04832 0.05107,0.08639 0.06682,0.133635 0.007,0.02113 0,0.04454 0,0.06682 0,0.0373 -0.01019,0.303501 0,0.334087 0.01,0.02988 0.05273,0.03865 0.06682,0.06682 0.01208,0.02416 0,0.287612 0,0.334086 0,0.244998 0,0.489995 0,0.734992 0,0.222724 0,0.445449 0,0.668173 0,0.03494 0.0088,0.249701 0,0.26727 -0.01409,0.02817 -0.05273,0.03865 -0.06682,0.06682 -0.01992,0.03984 0.01992,0.09379 0,0.133635 -0.01409,0.02817 -0.05273,0.03864 -0.06682,0.06682 -0.0094,0.0188 0,0.416645 0,0.467722 0,0.04454 0,0.08909 0,0.133635 0,0.02227 0.01,0.0469 0,0.06682 -0.01409,0.02817 -0.05273,0.03865 -0.06682,0.06682 -0.01,0.01992 0,0.04454 0,0.06682 0,0.02227 0,0.04454 0,0.06682 0,0.03494 0.0088,0.249701 0,0.26727 -0.01409,0.02817 -0.05273,0.03865 -0.06682,0.06682 -0.01,0.01992 0.01,0.0469 0,0.06682 -0.01409,0.02817 -0.05273,0.03864 -0.06682,0.06682 -0.021,0.042 0.021,0.225273 0,0.26727 -0.01409,0.02817 -0.05686,0.03693 -0.06682,0.06682 -0.02367,0.071 0.02367,0.196268 0,0.267269 -0.01575,0.04725 -0.05107,0.08639 -0.06682,0.133635 -0.007,0.02113 0.01,0.0469 0,0.06682 -0.01409,0.02817 -0.05273,0.03864 -0.06682,0.06682 -0.021,0.042 0.021,0.225273 0,0.26727 -0.221605,0.221605 0.0315,-0.063 -0.06682,0.133634 -0.01409,0.02817 -0.05273,0.03865 -0.06682,0.06682 -0.01992,0.03984 0.01409,0.09137 0,0.133634 -0.01575,0.04725 -0.05107,0.08639 -0.06682,0.133635 -0.01409,0.04226 0.01992,0.09379 0,0.133635 -0.01409,0.02817 -0.05686,0.03694 -0.06682,0.06682 -0.01409,0.04226 0.01992,0.09379 0,0.133635 -0.01,0.01992 -0.05107,-0.01575 -0.06682,0 -0.03341,0.03341 0.03341,0.167043 0,0.200452 -0.01575,0.01575 -0.05107,-0.01575 -0.06682,0 -0.01575,0.01575 0.01,0.0469 0,0.06682 -0.01409,0.02817 -0.05686,0.03693 -0.06682,0.06682 -0.02004,0.06014 0.02004,0.140317 0,0.200452 -0.01575,0.04725 -0.05107,0.08639 -0.06682,0.133635 -0.007,0.02113 0.01575,0.05107 0,0.06682 -0.01575,0.01575 -0.05107,-0.01575 -0.06682,0 -0.01575,0.01575 0.01,0.0469 0,0.06682 -0.01409,0.02817 -0.05273,0.03864 -0.06682,0.06682 -0.01487,0.02973 0.01019,0.236708 0,0.267269 -0.01,0.02988 -0.05273,0.03865 -0.06682,0.06682 -0.01992,0.03984 0.01992,0.09379 0,0.133635 -0.01409,0.02817 -0.05273,0.03864 -0.06682,0.06682 -0.02673,0.05345 0.02673,0.146998 0,0.200452 -0.01,0.01992 -0.05107,-0.01575 -0.06682,0 -0.03341,0.03341 0.03341,0.167044 0,0.200452 -0.01575,0.01575 -0.05107,-0.01575 -0.06682,0 -0.01366,0.01366 0.01324,0.17396 0,0.200453 -0.01409,0.02817 -0.05686,0.03693 -0.06682,0.06682 -0.01515,0.04546 0.01771,0.298658 0,0.334087 -0.01409,0.02817 -0.04454,0.04454 -0.06682,0.06682 -0.07645,0.07645 -0.09318,0.0791 -0.133635,0.200452 -0.02111,0.06333 0.02111,0.270761 0,0.334087 0.04027,0.120936 -0.10824,0.124269 -0.133634,0.200453 -0.01409,0.04226 0.01992,0.09379 0,0.133634 -0.01,0.01992 -0.05107,-0.01575 -0.06682,0 -0.01575,0.01575 0,0.04454 0,0.06682 0,0.06729 0.01232,0.363953 0,0.400904 -0.01,0.02988 -0.05273,0.03865 -0.06682,0.06682 -0.01,0.01992 0.01,0.0469 0,0.06682 -0.01409,0.02817 -0.05273,0.03864 -0.06682,0.06682 -0.01992,0.03984 0.01992,0.09379 0,0.133635 -0.01409,0.02817 -0.05273,0.03864 -0.06682,0.06682 -0.01992,0.03984 0.0108,0.09042 0,0.133635 -0.139039,0.556156 0.0046,-0.08066 -0.133635,0.334087 -0.007,0.02113 0.0054,0.04521 0,0.06682 -0.01708,0.06833 -0.053,0.131388 -0.06682,0.200452 -0.0087,0.04368 0.01409,0.09138 0,0.133635 -0.01,0.02988 -0.05273,0.03865 -0.06682,0.06682 -0.01992,0.03984 0.01992,0.09379 0,0.133634 -0.01409,0.02817 -0.05273,0.03865 -0.06682,0.06682 -0.01812,0.03625 0.01828,0.248987 0,0.267269 -0.01575,0.01575 -0.05107,-0.01575 -0.06682,0 -0.03341,0.03341 0.03341,0.167044 0,0.200452 -0.01575,0.01575 -0.05107,-0.01575 -0.06682,0 -0.01575,0.01575 0,0.04454 0,0.06682 0,0.06474 0.01328,0.361063 0,0.400904 -0.161328,0.483986 0.01927,-0.105345 -0.133634,0.200452 -0.01992,0.03984 0.01992,0.09379 0,0.133635 -0.01409,0.02817 -0.05273,0.03864 -0.06682,0.06682 -0.02029,0.04057 0.02029,0.360332 0,0.400905 -0.01409,0.02817 -0.05273,0.03864 -0.06682,0.06682 -0.01,0.01992 0.01,0.0469 0,0.06682 -0.01409,0.02817 -0.05273,0.03865 -0.06682,0.06682 -0.01208,0.02416 0,0.287612 0,0.334087 0,0.02227 0,0.04454 0,0.06682 0,0.02227 0.01575,0.05107 0,0.06682 -0.01575,0.01575 -0.05107,-0.01575 -0.06682,0 -0.01366,0.01366 0.01324,0.17396 0,0.200452 -0.01409,0.02817 -0.05273,0.03865 -0.06682,0.06682 -0.021,0.042 0.021,0.225273 0,0.267269 -0.01409,0.02817 -0.05273,0.03865 -0.06682,0.06682 -0.01812,0.03625 0.01828,0.248987 0,0.267269 -0.01575,0.01575 -0.05686,-0.01992 -0.06682,0 -0.01992,0.03984 0,0.08909 0,0.133635 0,0.02227 0.01575,0.05107 0,0.06682 -0.01575,0.01575 -0.05107,-0.01575 -0.06682,0 -0.02069,0.02069 0.02069,0.313397 0,0.334087 -0.01575,0.01575 -0.05107,-0.01575 -0.06682,0 -0.01608,0.01608 0.01608,0.251192 0,0.26727 -0.01575,0.01575 -0.05107,-0.01575 -0.06682,0 -0.0315,0.0315 0.01992,0.09379 0,0.133635 -0.01409,0.02817 -0.05273,0.03864 -0.06682,0.06682 -0.02673,0.05345 0.02673,0.146998 0,0.200452 -0.01409,0.02817 -0.05273,0.03865 -0.06682,0.06682 -0.02673,0.05345 0.02673,0.146999 0,0.200453 -0.01409,0.02817 -0.05686,0.03693 -0.06682,0.06682 -0.01741,0.05224 0.01839,0.364135 0,0.400905 -0.01409,0.0282 -0.05686,0.0369 -0.06682,0.0668 -0.01019,0.0306 0.01487,0.23754 0,0.26727 -0.01409,0.0282 -0.05273,0.0386 -0.06682,0.0668 -0.02166,0.0433 0.02098,0.33795 0,0.4009 -0.01575,0.0472 -0.05107,0.0864 -0.06682,0.13364 -0.01256,0.0377 0,0.15654 0,0.20045 0,0.11136 0,0.22272 0,0.33409 0,0.20045 0,0.4009 0,0.60135 0,0.0223 0,0.0446 0,0.0668 0,0.0223 -0.01575,0.0511 0,0.0668 0.01575,0.0157 0.06682,-0.0223 0.06682,0 0,0.0223 -0.05107,0.0157 -0.06682,0 -0.01575,-0.0157 0,-0.0445 0,-0.0668 0,-0.0162 -0.0021,-0.1983 0,-0.20045 0.01575,-0.0157 0.0469,0.01 0.06682,0 0.278078,-0.13904 -0.07143,0.005 0.06682,-0.13364 0.01575,-0.0157 0.05107,0.0157 0.06682,0 0.0315,-0.0315 -0.0315,-0.10213 0,-0.13363 0.01575,-0.0157 0.04454,0 0.06682,0 0,-0.0223 -0.01,-0.0469 0,-0.0668 0.04009,-0.0802 0.160362,-0.12027 0.200452,-0.20045 0.01,-0.0199 -0.01575,-0.0511 0,-0.0668 0.01575,-0.0157 0.05107,0.0157 0.06682,0 0.03522,-0.0352 0.05107,-0.0864 0.06682,-0.13363 0.007,-0.0211 -0.01575,-0.0511 0,-0.0668 0.01575,-0.0157 0.05107,0.0157 0.06682,0 0.03522,-0.0352 0.0316,-0.0984 0.06682,-0.13364 0.01575,-0.0157 0.05107,0.0158 0.06682,0 0.0315,-0.0315 -0.0315,-0.10213 0,-0.13363 0.01575,-0.0157 0.05107,0.0157 0.06682,0 0.01575,-0.0157 -0.01575,-0.0511 0,-0.0668 0.01575,-0.0157 0.05107,0.0157 0.06682,0 0.01575,-0.0157 -0.01,-0.0469 0,-0.0668 0.02817,-0.0563 0.105462,-0.0773 0.133635,-0.13364 0.01992,-0.0398 -0.0315,-0.10214 0,-0.13363 0.06591,-0.0659 0.133634,0.13691 0.133634,-0.0668 0,-0.17818 -0.02227,0.0223 0.06682,-0.0668 0.0315,-0.0315 -0.0315,-0.10214 0,-0.13364 0.01575,-0.0157 0.05107,0.0157 0.06682,0 0.01575,-0.0157 -0.01575,-0.0511 0,-0.0668 0.01575,-0.0157 0.05107,0.0157 0.06682,0 0.0315,-0.0315 -0.0315,-0.10214 0,-0.13364 0.01575,-0.0157 0.05107,0.0157 0.06682,0 0.01575,-0.0157 -0.01575,-0.0511 0,-0.0668 0.01575,-0.0157 0.05107,0.0157 0.06682,0 0.01575,-0.0157 -0.01,-0.0469 0,-0.06682 0.01409,-0.02817 0.05273,-0.03864 0.06682,-0.06682 0.01992,-0.03984 -0.0315,-0.102136 0,-0.133635 0.138247,-0.138247 -0.0054,0.211261 0.133635,-0.06682 0.01992,-0.03984 -0.01992,-0.09379 0,-0.133635 0.01409,-0.02817 0.05273,-0.03864 0.06682,-0.06682 0.01,-0.01992 -0.01575,-0.05107 0,-0.06682 0.01575,-0.01575 0.05107,0.01575 0.06682,0 0.01575,-0.01575 -0.01,-0.0469 0,-0.06682 0.01409,-0.02817 0.05273,-0.03864 0.06682,-0.06682 0.01992,-0.03984 -0.0315,-0.102137 0,-0.133635 0.01575,-0.01575 0.05107,0.01575 0.06682,0 0.01575,-0.01575 -0.01575,-0.05107 0,-0.06682 0.01575,-0.01575 0.05107,0.01575 0.06682,0 0.0315,-0.0315 -0.01992,-0.09379 0,-0.133635 0.02817,-0.05635 0.105462,-0.07729 0.133635,-0.133635 0.01,-0.01992 -0.01,-0.0469 0,-0.06682 0.01409,-0.02817 0.05273,-0.03865 0.06682,-0.06682 0.01992,-0.03984 -0.0315,-0.102136 0,-0.133634 0.01575,-0.01575 0.05107,0.01575 0.06682,0 0.0315,-0.0315 -0.0315,-0.102137 0,-0.133635 0.01575,-0.01575 0.05107,0.01575 0.06682,0 0.0315,-0.0315 -0.0315,-0.102137 0,-0.133635 0.01575,-0.01575 0.05107,0.01575 0.06682,0 0.01575,-0.01575 -0.01,-0.0469 0,-0.06682 0.01409,-0.02817 0.05273,-0.03864 0.06682,-0.06682 0.01,-0.01992 -0.01575,-0.05107 0,-0.06682 0.01575,-0.01575 0.05107,0.01575 0.06682,0 0.0315,-0.0315 -0.01992,-0.09379 0,-0.133635 0.02817,-0.05634 0.105462,-0.07729 0.133635,-0.133635 0,-0.02227 0,-0.04454 0,-0.06682 0,-0.02227 -0.01,-0.0469 0,-0.06682 0.02817,-0.05635 0.105462,-0.07729 0.133635,-0.133635 0.01,-0.01992 -0.01,-0.0469 0,-0.06682 0.01409,-0.02817 0.05273,-0.03864 0.06682,-0.06682 0.01992,-0.03984 -0.0315,-0.102137 0,-0.133635 0.01575,-0.01575 0.05107,0.01575 0.06682,0 0.01575,-0.01575 -0.01,-0.0469 0,-0.06682 0.01409,-0.02817 0.05273,-0.03865 0.06682,-0.06682 0,-0.02227 0,-0.04454 0,-0.06682 0,-0.02227 -0.01,-0.0469 0,-0.06682 0.01409,-0.02817 0.04454,-0.04454 0.06682,-0.06682 0.07645,-0.07645 0.09318,-0.0791 0.133634,-0.200452 0.01409,-0.04226 -0.01992,-0.09379 0,-0.133634 0.01409,-0.02817 0.04935,-0.04061 0.06682,-0.06682 0.02763,-0.04144 0.03919,-0.0922 0.06682,-0.133635 0.01747,-0.02621 0.05273,-0.03864 0.06682,-0.06682 0.01992,-0.03984 -0.0315,-0.102137 0,-0.133635 0.138248,-0.138247 -0.0054,0.211261 0.133635,-0.06682 0.01992,-0.03984 -0.01992,-0.09379 0,-0.133635 0.01409,-0.02817 0.05273,-0.03865 0.06682,-0.06682 0.01,-0.01992 -0.01575,-0.05107 0,-0.06682 0.01575,-0.01575 0.05686,0.01992 0.06682,0 0.01992,-0.03984 -0.01409,-0.09137 0,-0.133634 0.01,-0.02988 0.05273,-0.03865 0.06682,-0.06682 0.01,-0.01992 -0.01,-0.0469 0,-0.06682 0.01409,-0.02817 0.05273,-0.03865 0.06682,-0.06682 0.01992,-0.03984 -0.0315,-0.102136 0,-0.133634 0.01575,-0.01575 0.05107,0.01575 0.06682,0 0.01366,-0.01366 -0.01324,-0.17396 0,-0.200452 0.02817,-0.05635 0.105462,-0.07729 0.133635,-0.133635 0.01,-0.01992 -0.01575,-0.05107 0,-0.06682 0.01575,-0.01575 0.05107,0.01575 0.06682,0 0.01575,-0.01575 0,-0.04454 0,-0.06682 0,-0.04647 -0.01208,-0.309923 0,-0.334087 0.02817,-0.05635 0.105462,-0.07729 0.133635,-0.133635 0.02673,-0.05345 -0.02673,-0.146998 0,-0.200452 0.01409,-0.02817 0.05273,-0.03865 0.06682,-0.06682 0.01,-0.01992 -0.01,-0.0469 0,-0.06682 0.01409,-0.02817 0.05273,-0.03865 0.06682,-0.06682 0.01,-0.01992 -0.01575,-0.05107 0,-0.06682 0.01575,-0.01575 0.05107,0.01575 0.06682,0 0.03341,-0.03341 -0.03341,-0.167044 0,-0.200452 0.01575,-0.01575 0.05107,0.01575 0.06682,0 0.01575,-0.01575 0,-0.08909 0,-0.06682 0,0.04454 0.01409,0.09138 0,0.133635 -0.01992,0.05976 -0.105462,0.07729 -0.133634,0.133635 -0.01,0.01992 0.01,0.0469 0,0.06682 -0.01409,0.02817 -0.05273,0.03864 -0.06682,0.06682 -0.01325,0.02649 0.01366,0.186792 0,0.200452 -0.01575,0.01575 -0.05107,-0.01575 -0.06682,0 -0.01575,0.01575 0.01,0.0469 0,0.06682 -0.01409,0.02817 -0.05273,0.03865 -0.06682,0.06682 -0.02673,0.05345 0.02673,0.146999 0,0.200453 -0.01409,0.02817 -0.05273,0.03864 -0.06682,0.06682 -0.01,0.01992 0.01575,0.05107 0,0.06682 -0.01575,0.01575 -0.05107,-0.01575 -0.06682,0 -0.01575,0.01575 0.007,0.04569 0,0.06682 -0.01575,0.04725 -0.05107,0.08639 -0.06682,0.133634 -0.01409,0.04226 0.0315,0.102137 0,0.133635 -0.01575,0.01575 -0.05107,-0.01575 -0.06682,0 -0.0315,0.0315 0.01992,0.09379 0,0.133635 -0.01409,0.02817 -0.05273,0.03865 -0.06682,0.06682 -0.322658,0.645315 0.08608,-0.124608 -0.06682,0.334087 -0.01,0.02988 -0.05273,0.03864 -0.06682,0.06682 -0.01992,0.03984 0.0315,0.102136 0,0.133634 -0.01575,0.01575 -0.05107,-0.01575 -0.06682,0 -0.01977,0.01977 0.02069,0.225882 0,0.26727 -0.01409,0.02817 -0.05686,0.03694 -0.06682,0.06682 0,0.304172 0.0315,0.0038 -0.06682,0.200452 -0.02988,0.05976 0.02988,0.140689 0,0.200453 -0.01,0.01992 -0.05107,-0.01575 -0.06682,0 -0.01575,0.01575 0,0.04454 0,0.06682 0,0.05972 0.01065,0.312794 0,0.334087 -0.01409,0.02817 -0.05273,0.03864 -0.06682,0.06682 -0.01,0.01992 0.0054,0.04521 0,0.06682 -0.01708,0.06833 -0.053,0.131388 -0.06682,0.200452 -0.0087,0.04368 0,0.08909 0,0.133634 0,0.02227 0.01,0.0469 0,0.06682 -0.01409,0.02817 -0.05273,0.03865 -0.06682,0.06682 -0.02988,0.05976 0.02988,0.140689 0,0.200452 -0.01,0.01992 -0.05107,-0.01575 -0.06682,0 -0.0315,0.0315 0.01992,0.09379 0,0.133635 -0.01409,0.02817 -0.05686,0.03694 -0.06682,0.06682 -0.01409,0.04226 0,0.08909 0,0.133635 0,0.02227 0.01,0.0469 0,0.06682 -0.01409,0.02817 -0.05686,0.03694 -0.06682,0.06682 -0.02817,0.08452 0.02817,0.182751 0,0.26727 -0.01,0.02988 -0.05686,0.03693 -0.06682,0.06682 0,0.304172 0.0315,0.0038 -0.06682,0.200452 -0.02673,0.05345 0.02673,0.146998 0,0.200452 -0.01409,0.02817 -0.05273,0.03865 -0.06682,0.06682 -0.02673,0.05345 0.02673,0.146998 0,0.200452 -0.01409,0.02817 -0.05273,0.03865 -0.06682,0.06682 -0.021,0.042 0.021,0.225273 0,0.26727 -0.01409,0.02817 -0.05273,0.03864 -0.06682,0.06682 -0.01992,0.03984 0.01992,0.09379 0,0.133635 -0.01409,0.02817 -0.05273,0.03865 -0.06682,0.06682 -0.0086,0.01727 0,0.35353 0,0.40089 0,0.0223 0,0.0446 0,0.0668 0,0.0223 0.01575,0.0511 0,0.0668 -0.01575,0.0157 -0.05107,-0.0157 -0.06682,0 -0.01366,0.0136 0.01325,0.17396 0,0.20045 -0.01409,0.0282 -0.05273,0.0387 -0.06682,0.0668 -0.02029,0.0406 0.02029,0.36033 0,0.4009 -0.01409,0.0282 -0.05273,0.0387 -0.06682,0.0668 -0.01017,0.0203 0,0.17036 0,0.20045 0,0.13364 0,0.26727 0,0.40091 0,0.35636 0,0.71272 0,1.06908 0,0.0315 -0.003,0.33106 0,0.33408 0.0315,0.0315 0.102136,-0.0315 0.133634,0 0.01575,0.0157 -0.01575,0.0511 0,0.0668 0.01575,0.0157 0.04454,0 0.06682,0 0.155907,0 0.311814,0 0.467722,0 0.178179,0 0.356359,0 0.534539,0 0.02227,0 0.05107,0.0157 0.06682,0 0.01575,-0.0157 -0.01575,-0.0511 0,-0.0668 0.01828,-0.0183 0.231022,0.0181 0.267269,0 0.278078,-0.13904 -0.07143,0.005 0.06682,-0.13363 0.0315,-0.0315 0.102136,0.0315 0.133635,0 0.01575,-0.0157 -0.01575,-0.0511 0,-0.0668 0.03341,-0.0334 0.167043,0.0334 0.200452,0 0.01575,-0.0157 -0.01575,-0.0511 0,-0.0668 0.01575,-0.0157 0.05107,0.0157 0.06682,0 0.01575,-0.0157 -0.01575,-0.0511 0,-0.0668 0.01575,-0.0157 0.0469,0.01 0.06682,0 0.05922,-0.0296 0.139628,-0.15991 0.200453,-0.20046 0.04144,-0.0276 0.09842,-0.0316 0.133634,-0.0668 0.01575,-0.0157 -0.01575,-0.0511 0,-0.0668 0.01575,-0.0157 0.05107,0.0157 0.06682,0 0.01575,-0.0157 -0.01575,-0.0511 0,-0.0668 0.01575,-0.0157 0.05107,0.0157 0.06682,0 0.01575,-0.0157 -0.01575,-0.0511 0,-0.0668 0.01575,-0.0157 0.04454,0 0.06682,0 0,-0.0223 -0.01,-0.0469 0,-0.0668 0.01409,-0.0282 0.04454,-0.0445 0.06682,-0.0668 0.02227,-0.0223 0.04061,-0.0494 0.06682,-0.0668 0.04144,-0.0276 0.09842,-0.0316 0.133635,-0.0668 0.01575,-0.0157 -0.01,-0.0469 0,-0.0668 0.02817,-0.0563 0.105462,-0.0773 0.133635,-0.13364 0.01,-0.0199 -0.01575,-0.0511 0,-0.0668 0.01575,-0.0157 0.05107,0.0157 0.06682,0 0.0315,-0.0315 -0.0315,-0.10214 0,-0.13364 0.01575,-0.0157 0.04454,0 0.06682,0 0.04454,-0.0445 0.09869,-0.0812 0.133634,-0.13363 0.01235,-0.0185 -0.01,-0.0469 0,-0.0668 0.04009,-0.0802 0.160362,-0.12027 0.200452,-0.20045 0.01,-0.0199 -0.01,-0.0469 0,-0.0668 0.01409,-0.0282 0.05273,-0.0386 0.06682,-0.0668 0.01,-0.0199 -0.01,-0.0469 0,-0.0668 0.04009,-0.0802 0.160362,-0.12027 0.200452,-0.20045 0.01,-0.0199 -0.007,-0.0457 0,-0.0668 0.161329,-0.48399 -0.01926,0.10534 0.133635,-0.20046 0.01,-0.0199 -0.01,-0.0469 0,-0.0668 0.04009,-0.0802 0.160362,-0.12028 0.200452,-0.20046 0.08228,-0.16457 -0.193953,0.0603 0.06682,-0.20045 0.01575,-0.0157 0.05107,0.0157 0.06682,0 0.0315,-0.0315 -0.01992,-0.0938 0,-0.13363 0.01409,-0.0282 0.04934,-0.0406 0.06682,-0.06682 0.02763,-0.04144 0.0316,-0.09842 0.06682,-0.133634 0.01575,-0.01575 0.05686,0.01992 0.06682,0 0.05976,-0.05271 -0.02988,-0.140689 0,-0.200452 0.02817,-0.05635 0.113713,-0.07387 0.133634,-0.133635 0.01409,-0.04226 -0.01409,-0.09138 0,-0.133635 0.01,-0.02988 0.05273,-0.03864 0.06682,-0.06682 0.01,-0.01992 -0.01,-0.0469 0,-0.06682 0.139039,-0.278077 -0.0046,0.07143 0.133635,-0.06682 0.01366,-0.01366 -0.01325,-0.17396 0,-0.200452 0.07206,-0.144113 0.06158,0.01048 0.133634,-0.133635 0.01992,-0.03984 -0.01992,-0.09379 0,-0.133635 0.221606,-0.221605 -0.0315,0.063 0.06682,-0.133634 0.01409,-0.02817 0.05686,-0.03694 0.06682,-0.06682 0.01409,-0.04226 -0.01409,-0.09138 0,-0.133635 0.01,-0.02988 0.04935,-0.04061 0.06682,-0.06682 0.02763,-0.04144 0.05107,-0.08639 0.06682,-0.133635 0.01409,-0.04226 -0.01992,-0.09379 0,-0.133635 0.01409,-0.02817 0.05686,-0.03693 0.06682,-0.06682 0.01409,-0.04226 -0.01992,-0.09379 0,-0.133635 0.01,-0.01992 0.05686,0.01992 0.06682,0 0.0205,-0.04101 -0.02071,-0.292666 0,-0.334087 0.152898,-0.305797 -0.02769,0.283534 0.133634,-0.200452 0.01359,-0.04076 0,-0.349299 0,-0.400904 0,-0.02227 0,-0.04454 0,-0.06682 0,-0.02227 -0.01575,-0.05107 0,-0.06682 0.01575,-0.01575 0.05107,0.01575 0.06682,0 0.02345,-0.02345 -0.02308,-0.287934 0,-0.334087 0.01409,-0.02817 0.05273,-0.03864 0.06682,-0.06682 0.01,-0.01992 0,-0.04454 0,-0.06682 0,-0.02227 0,-0.04454 0,-0.06682 0,-0.06729 -0.01232,-0.363953 0,-0.400904 0.01,-0.02988 0.05273,-0.03865 0.06682,-0.06682 0.02673,-0.05345 -0.02673,-0.146999 0,-0.200453 0.01409,-0.02817 0.05273,-0.03864 0.06682,-0.06682 0.01,-0.01992 0,-0.04455 0,-0.06682 0,-0.04455 0,-0.08909 0,-0.133635 0,-0.155907 0,-0.311814 0,-0.467722 0,-0.02227 0,-0.04454 0,-0.06682 0,-0.02227 -0.01,-0.0469 0,-0.06682 0.01409,-0.02817 0.05273,-0.03865 0.06682,-0.06682 0.0086,-0.01727 0,-0.353544 0,-0.400904 0,-0.17818 0,-0.356359 0,-0.534539 0,-0.03009 0.01017,-0.180118 0,-0.200452 -0.01409,-0.02817 -0.05273,-0.03865 -0.06682,-0.06682 -0.02308,-0.04615 0.02346,-0.310633 0,-0.334087 -0.01575,-0.01575 -0.05107,0.01575 -0.06682,0 -0.01608,-0.01608 0.01608,-0.251191 0,-0.267269 -0.01575,-0.01575 -0.05107,0.01575 -0.06682,0 -0.03341,-0.03341 0.03341,-0.167044 0,-0.200452 -0.01575,-0.01575 -0.05107,0.01575 -0.06682,0 -0.02069,-0.02069 0.02069,-0.313398 0,-0.334087 -0.138248,-0.138248 0.0054,0.21126 -0.133635,-0.06682 -0.01992,-0.03984 0.0315,-0.102136 0,-0.133634 -0.01575,-0.01575 -0.05107,0.01575 -0.06682,0 -0.01575,-0.01575 0.01575,-0.05107 0,-0.06682 -0.01575,-0.01575 -0.05107,0.01575 -0.06682,0 -0.01575,-0.01575 0.01575,-0.05107 0,-0.06682 -0.01575,-0.01575 -0.05107,0.01575 -0.06682,0 -0.01575,-0.01575 0.01575,-0.05107 0,-0.06682 -0.01575,-0.01575 -0.05107,0.01575 -0.06682,0 -0.01575,-0.01575 0.01575,-0.05107 0,-0.06682 -0.01575,-0.01575 -0.05107,0.01575 -0.06682,0 -0.01575,-0.01575 0.01575,-0.05107 0,-0.06682 -0.0315,-0.0315 -0.102136,0.0315 -0.133635,0 -0.01575,-0.01575 0.01575,-0.05107 0,-0.06682 -0.01575,-0.01575 -0.05107,0.01575 -0.06682,0 -0.01575,-0.01575 0.01575,-0.05107 0,-0.06682 -0.01366,-0.01366 -0.17396,0.01324 -0.200452,0 -0.278078,-0.139039 0.07143,0.0046 -0.06682,-0.133635 -0.01575,-0.01575 -0.05107,0.01575 -0.06682,0 -0.01575,-0.01575 0.01575,-0.05107 0,-0.06682 -0.01575,-0.01575 -0.04454,0 -0.06682,0 -0.155907,0 -0.311815,0 -0.467722,0 -0.155907,0 -0.311814,0 -0.467722,0 -0.03009,0 -0.180117,-0.01017 -0.200452,0 -0.05635,0.02817 -0.07729,0.105462 -0.133634,0.133635 -0.03625,0.01812 -0.248987,-0.01828 -0.26727,0 -0.01575,0.01575 0.01575,0.05107 0,0.06682 -0.03341,0.03341 -0.167043,-0.03341 -0.200452,0 -0.01575,0.01575 0.01575,0.05107 0,0.06682 -0.134155,0.134155 5.29e-4,-0.134155 -0.133635,0 -0.01575,0.01575 0.01575,0.05107 0,0.06682 -0.0315,0.0315 -0.102137,-0.0315 -0.133635,0 -0.01575,0.01575 0.01575,0.05107 0,0.06682 -0.08944,0.08944 -0.0442,-0.08944 -0.133634,0 -0.01575,0.01575 0.01575,0.05107 0,0.06682 -0.01575,0.01575 -0.0469,-0.01 -0.06682,0 -0.02817,0.01409 -0.03865,0.05273 -0.06682,0.06682 -0.03984,0.01992 -0.102137,-0.0315 -0.133635,0 -0.01575,0.01575 0.01575,0.05107 0,0.06682 -0.01575,0.01575 -0.05107,-0.01575 -0.06682,0 -0.01575,0.01575 0.01575,0.05107 0,0.06682 -0.01575,0.01575 -0.05107,-0.01575 -0.06682,0 -0.01575,0.01575 0.01575,0.05107 0,0.06682 -0.08944,0.08944 -0.0442,-0.08944 -0.133634,0 -0.01575,0.01575 0.01,0.0469 0,0.06682 -0.01409,0.02817 -0.04454,0.04454 -0.06682,0.06682 -0.02227,0.02227 -0.03865,0.05273 -0.06682,0.06682 -0.01992,0.01 -0.05107,-0.01575 -0.06682,0 -0.134155,0.134155 0.134155,-5.29e-4 0,0.133635 -0.01575,0.01575 -0.0469,-0.01 -0.06682,0 -0.278078,0.139039 0.07143,-0.0046 -0.06682,0.133635 -0.01575,0.01575 -0.05107,-0.01575 -0.06682,0 -0.0315,0.0315 0.01992,0.09379 0,0.133635 -0.139039,0.278077 0.0046,-0.07143 -0.133634,0.06682 -0.0315,0.0315 0.01992,0.09379 0,0.133635 -0.13904,0.278077 0.0046,-0.07143 -0.133635,0.06682 -0.0315,0.0315 0.01992,0.09379 0,0.133635 -0.01409,0.02817 -0.05273,0.03864 -0.06682,0.06682 -0.01992,0.03984 0.0315,0.102137 0,0.133635 -0.01575,0.01575 -0.05446,-0.01853 -0.06682,0 -0.20373,0.0473 -0.02575,0.185133 -0.06682,0.267269 -0.02817,0.05635 -0.105463,0.07729 -0.133635,0.133635 -0.01325,0.02649 0.01366,0.186792 0,0.200452 -0.01575,0.01575 -0.05107,-0.01575 -0.06682,0 -0.01575,0.01575 0.01,0.0469 0,0.06682 -0.01409,0.02817 -0.05273,0.03864 -0.06682,0.06682 -0.01992,0.03984 0.0315,0.102137 0,0.133635 -0.01575,0.01575 -0.05107,-0.01575 -0.06682,0 -0.013,0.013 0.0122,0.309688 0,0.334087 -0.01,0.01992 -0.05107,-0.01575 -0.06682,0 -0.01575,0.01575 0,0.04454 0,0.06682 0,0.02227 0,0.04454 0,0.06682 0,0.334086 0,0.668173 0,1.00226 0,0.133635 0,0.26727 0,0.400905 0,0.02227 -0.01575,0.05107 0,0.06682 0.01575,0.01575 0.05107,-0.01575 0.06682,0 0.0315,0.0315 -0.01992,0.09379 0,0.133635 0.01409,0.02817 0.05686,0.03693 0.06682,0.06682 0.01409,0.04226 -0.01992,0.09379 0,0.133635 0.01,0.01992 0.05107,-0.01575 0.06682,0 0.01828,0.01828 -0.01812,0.231022 0,0.267269 0.02396,0.04793 0.109672,0.08571 0.133634,0.133635 0.01812,0.03625 -0.01828,0.248987 0,0.26727 0.01575,0.01575 0.05107,-0.01575 0.06682,0 0.0315,0.0315 -0.0315,0.102136 0,0.133634 0.01575,0.01575 0.04454,0 0.06682,0 0.02227,0.04454 0.05107,0.08639 0.06682,0.133635 0.01409,0.04226 -0.01992,0.09379 0,0.133635 0.01409,0.02817 0.05273,0.03865 0.06682,0.06682 0.01,0.01992 -0.01575,0.05107 0,0.06682 0.01575,0.01575 0.05107,-0.01575 0.06682,0 0.01575,0.01575 -0.01,0.0469 0,0.06682 0.01409,0.02817 0.05273,0.03865 0.06682,0.06682 0.01,0.01992 -0.01575,0.05107 0,0.06682 0.01575,0.01575 0.05107,-0.01575 0.06682,0 0.01575,0.01575 -0.01,0.0469 0,0.06682 0.01409,0.02817 0.04454,0.04454 0.06682,0.06682 0.0393,0.0393 0.251799,0.236328 0.26727,0.26727 0.01,0.01992 -0.01575,0.05107 0,0.06682 0.0315,0.0315 0.102136,-0.0315 0.133635,0 0.01575,0.01575 -0.01575,0.05107 0,0.06682 0.01575,0.01575 0.0469,-0.01 0.06682,0 0.02817,0.01409 0.03865,0.05273 0.06682,0.06682 0.01992,0.01 0.05107,-0.01575 0.06682,0 0.0315,0.0315 -0.0315,0.102137 0,0.133635 0.03341,0.03341 0.167043,-0.03341 0.200452,0 0.01575,0.01575 -0.01,0.0469 0,0.06682 0.01409,0.02817 0.04454,0.04454 0.06682,0.06682 0.02227,0.02227 0.03865,0.05273 0.06682,0.06682 0.02649,0.01324 0.186792,-0.01366 0.200452,0 0.01575,0.01575 -0.01575,0.05107 0,0.06682 0.01575,0.01575 0.05107,-0.01575 0.06682,0 0.01575,0.01575 -0.01575,0.05107 0,0.06682 0.03341,0.03341 0.167044,-0.03341 0.200452,0 0.01575,0.01575 -0.01575,0.05107 0,0.06682 0.01366,0.01366 0.17396,-0.01325 0.200452,0 0.02817,0.01409 0.03864,0.05273 0.06682,0.06682 0.03625,0.01812 0.248987,-0.01828 0.267269,0 0.01575,0.01575 -0.01575,0.05107 0,0.06682 0.01575,0.01575 0.04454,0 0.06682,0 0.111362,0 0.222724,0 0.334087,0 0.244997,0 0.489994,0 0.734991,0 0.02227,0 0.04454,0 0.06682,0 0.02227,0 0.05107,0.01575 0.06682,0 0.01575,-0.01575 -0.01575,-0.05107 0,-0.06682 0.0315,-0.0315 0.09379,0.01992 0.133635,0 0.02817,-0.01409 0.03865,-0.05273 0.06682,-0.06682 0.03625,-0.01812 0.248986,0.01828 0.267269,0 0.01575,-0.01575 -0.01575,-0.05107 0,-0.06682 0.01575,-0.01575 0.05107,0.01575 0.06682,0 0.01575,-0.01575 -0.01575,-0.05107 0,-0.06682 0.0315,-0.0315 0.09379,0.01992 0.133634,0 0.05635,-0.02817 0.07729,-0.105462 0.133635,-0.133634 0.01992,-0.01 0.05107,0.01575 0.06682,0 0.01575,-0.01575 -0.01575,-0.05107 0,-0.06682 0.01575,-0.01575 0.0469,0.01 0.06682,0 0.05635,-0.02817 0.07729,-0.105462 0.133635,-0.133634 0.01992,-0.01 0.0469,0.01 0.06682,0 0.278078,-0.139039 -0.07143,0.0046 0.06682,-0.133635 0.03341,-0.03341 0.167044,0.03341 0.200452,0 0.0315,-0.0315 -0.0315,-0.102137 0,-0.133635 0.01575,-0.01575 0.05107,0.01575 0.06682,0 0.01575,-0.01575 -0.01575,-0.05107 0,-0.06682 0.01575,-0.01575 0.05107,0.01575 0.06682,0 0.01575,-0.01575 -0.01575,-0.05107 0,-0.06682 0.01575,-0.01575 0.0469,0.01 0.06682,0 0.02817,-0.01409 0.03864,-0.05273 0.06682,-0.06682 0.01992,-0.01 0.05107,0.01575 0.06682,0 0.01575,-0.01575 -0.01,-0.0469 0,-0.06682 0.13904,-0.278077 -0.0046,0.07143 0.133635,-0.06682 0.138248,-0.138247 -0.21126,0.0054 0.06682,-0.133635 0.17818,0 -0.02227,0.02227 0.06682,-0.06682 0.01575,-0.01575 0.05107,0.01575 0.06682,0 0.01575,-0.01575 -0.01575,-0.05107 0,-0.06682 0.01575,-0.01575 0.05107,0.01575 0.06682,0 0.01575,-0.01575 -0.01,-0.0469 0,-0.06682 0.04009,-0.08018 0.160361,-0.120271 0.200452,-0.200452 0.01,-0.01992 -0.01575,-0.05107 0,-0.06682 0.01575,-0.01575 0.05107,0.01575 0.06682,0 0.01575,-0.01575 -0.01575,-0.05107 0,-0.06682 0.03522,-0.03522 0.09842,-0.0316 0.133635,-0.06682 0.0315,-0.0315 -0.0315,-0.102137 0,-0.133635 0.138248,-0.138247 -0.0054,0.211261 0.133635,-0.06682 0.01992,-0.03984 -0.0315,-0.102137 0,-0.133635 0.138247,-0.138247 -0.0054,0.211261 0.133634,-0.06682 0.01,-0.01992 -0.01575,-0.05107 0,-0.06682 0.01575,-0.01575 0.05107,0.01575 0.06682,0 0.0315,-0.0315 -0.0315,-0.102137 0,-0.133634 0.138248,-0.138248 -0.0054,0.21126 0.133635,-0.06682 0.04608,-0.09216 -0.08092,-0.05977 0.06682,-0.133635 0.09216,-0.04608 0.05977,0.08092 0.133635,-0.06682 0.01,-0.01992 -0.01,-0.0469 0,-0.06682 0.02817,-0.05635 0.105462,-0.07729 0.133635,-0.133635 0.01,-0.01992 -0.01,-0.0469 0,-0.06682 0.01409,-0.02817 0.04935,-0.04061 0.06682,-0.06682 0.02763,-0.04144 0.0316,-0.09842 0.06682,-0.133635 0.01575,-0.01575 0.05686,0.01992 0.06682,0 0.01992,-0.03984 -0.01992,-0.09379 0,-0.133634 0.01,-0.01992 0.05107,0.01575 0.06682,0 0.03522,-0.03522 0.05107,-0.08639 0.06682,-0.133635 0.007,-0.02113 -0.01575,-0.05107 0,-0.06682 0.01575,-0.01575 0.04454,0 0.06682,0 0.04454,-0.04454 0.09869,-0.08122 0.133635,-0.133634 0.01235,-0.01853 -0.01575,-0.05107 0,-0.06682 0.138247,-0.138247 -0.0054,0.211261 0.133634,-0.06682 0.04608,-0.09216 -0.08092,-0.05977 0.06682,-0.133635 0.17818,0 -0.02227,0.02227 0.06682,-0.06682 0.01575,-0.01575 0.05686,0.01992 0.06682,0 0.01992,-0.03984 0,-0.08909 0,-0.133635 0,-0.02227 -0.01575,-0.05107 0,-0.06682 0.0315,-0.0315 0.102136,0.0315 0.133634,0 0.01575,-0.01575 -0.01,-0.0469 0,-0.06682 0.01409,-0.02817 0.05273,-0.03865 0.06682,-0.06682 0.01,-0.01992 -0.01,-0.0469 0,-0.06682 0.01409,-0.02817 0.05273,-0.03865 0.06682,-0.06682 0,-0.17818 -0.02227,0.02227 0.06682,-0.06682 0.03521,-0.03522 0.0316,-0.09842 0.06682,-0.133635 0.01575,-0.01575 0.05107,0.01575 0.06682,0 0.0315,-0.0315 -0.0315,-0.102137 0,-0.133635 0.138248,-0.138247 -0.0054,0.211261 0.133635,-0.06682 0.01,-0.01992 -0.01,-0.0469 0,-0.06682 0.01409,-0.02817 0.05273,-0.03865 0.06682,-0.06682 0.08416,-0.168312 -0.253779,0.05782 0.133635,-0.200452 0.01853,-0.01235 0.05107,0.01575 0.06682,0 0.0315,-0.0315 -0.0315,-0.102137 0,-0.133635 0.138247,-0.138247 -0.0054,0.211261 0.133634,-0.06682 0.01992,-0.03984 -0.01992,-0.09379 0,-0.133635 0.139039,-0.278078 -0.0046,0.07143 0.133635,-0.06682 0.01575,-0.01575 -0.01575,-0.05107 0,-0.06682 0.01575,-0.01575 0.05107,0.01575 0.06682,0 0.01575,-0.01575 0,-0.04454 0,-0.06682 0,-0.02227 -0.01575,-0.05107 0,-0.06682 0.03522,-0.03522 0.09842,-0.0316 0.133634,-0.06682 0.0315,-0.0315 -0.0315,-0.102137 0,-0.133635 0.138249,-0.138247 -0.0054,0.211261 0.133634,-0.06682 0.0099,-0.01992 -0.01,-0.0469 0,-0.06682 0.01408,-0.02817 0.05273,-0.03865 0.06682,-0.06682 0.0099,-0.01992 -0.01574,-0.05107 0,-0.06682 0.01574,-0.01575 0.05107,0.01575 0.06682,0 0.01574,-0.01575 -0.01574,-0.05107 0,-0.06682 0.01574,-0.01575 0.05107,0.01575 0.06682,0 0.0315,-0.0315 -0.03984,-0.113714 0,-0.133635 0.03984,-0.01992 0.09379,0.01992 0.133633,0 0.03984,-0.01992 -0.01992,-0.09379 0,-0.133635 0.139039,-0.278078 -0.0046,0.07143 0.133636,-0.06682 0.03522,-0.03522 0.05107,-0.08639 0.06682,-0.133635 0.007,-0.02113 -0.01574,-0.05107 0,-0.06682 0.01574,-0.01575 0.05107,0.01575 0.06682,0 0.01574,-0.01575 -0.01574,-0.05107 0,-0.06682 0.01574,-0.01575 0.05107,0.01575 0.06682,0 0.03341,-0.03341 -0.03341,-0.167043 0,-0.200452 0.0315,-0.0315 0.102137,0.0315 0.133636,0 0.01574,-0.01575 -0.01574,-0.05107 0,-0.06682 0.01574,-0.01575 0.05107,0.01575 0.06682,0 0.03341,-0.03341 -0.03341,-0.167043 0,-0.200452 0.01574,-0.01575 0.05107,0.01575 0.06682,0 0.01574,-0.01575 -0.01574,-0.05107 0,-0.06682 0.01574,-0.01575 0.05107,0.01575 0.06682,0 0.01574,-0.01575 -0.01574,-0.05107 0,-0.06682 0.01574,-0.01575 0.05107,0.01575 0.06682,0 0.0315,-0.0315 -0.0315,-0.102137 0,-0.133635 0.01574,-0.01575 0.06682,-0.02227 0.06682,0 0,0.139039 -0.0937,0.02688 -0.133635,0.06682 -0.01574,0.01575 0.01574,0.05107 0,0.06682 -0.01574,0.01575 -0.05107,-0.01575 -0.06682,0 -0.01574,0.01575 0.01574,0.05107 0,0.06682 -0.01574,0.01575 -0.05107,-0.01575 -0.06682,0 -0.01574,0.01575 0.01574,0.05107 0,0.06682 -0.178874,0.178874 0.04524,-0.178873 -0.133635,0 -0.01574,0.01575 0.01,0.0469 0,0.06682 -0.04009,0.08018 -0.160362,0.120271 -0.200451,0.200452 -0.0099,0.01992 0.01574,0.05107 0,0.06682 -0.0315,0.0315 -0.102137,-0.0315 -0.133636,0 -0.0315,0.0315 0.01992,0.09379 0,0.133635 -0.02817,0.05635 -0.105463,0.07729 -0.133636,0.133635 -0.0099,0.01992 0.0099,0.0469 0,0.06682 -0.139038,0.278078 0.0046,-0.07143 -0.133633,0.06682 -0.01574,0.01575 0.0099,0.0469 0,0.06682 -0.05117,0.102336 -0.11907,0.05225 -0.200452,0.133635 -0.01575,0.01575 0.01,0.0469 0,0.06682 -0.01409,0.02817 -0.04454,0.04454 -0.06682,0.06682 -0.02227,0.02227 -0.04454,0.04454 -0.06682,0.06682 -0.02227,0.02227 -0.05273,0.03865 -0.06682,0.06682 -0.01,0.01992 0.01235,0.04829 0,0.06682 -0.03494,0.05241 -0.08909,0.08909 -0.133635,0.133634 -0.04454,0.04454 -0.08909,0.08909 -0.133635,0.133635 -0.02227,0.02227 -0.04935,0.04061 -0.06682,0.06682 -0.02763,0.04144 -0.03919,0.0922 -0.06682,0.133634 -0.03494,0.05242 -0.105462,0.07729 -0.133635,0.133635 -0.01,0.01992 0.01575,0.05107 0,0.06682 -0.01575,0.01575 -0.05107,-0.01575 -0.06682,0 -0.01575,0.01575 0.01,0.0469 0,0.06682 -0.02817,0.05635 -0.105462,0.07729 -0.133635,0.133635 -0.01,0.01992 0.01,0.0469 0,0.06682 -0.139039,0.278078 0.0046,-0.07143 -0.133634,0.06682 -0.01575,0.01575 0.01,0.0469 0,0.06682 -0.01409,0.02817 -0.05273,0.03864 -0.06682,0.06682 -0.0315,0.063 -0.02775,0.141849 -0.06682,0.200452 -0.01235,0.01853 -0.05107,-0.01575 -0.06682,0 -0.01575,0.01575 0.01,0.0469 0,0.06682 -0.02817,0.05634 -0.09869,0.08122 -0.133634,0.133634 -0.02763,0.04144 -0.04455,0.08909 -0.06682,0.133635 -0.02227,0.04454 -0.05107,0.08639 -0.06682,0.133635 -0.007,0.02113 0.01,0.0469 0,0.06682 -0.01409,0.02817 -0.05273,0.03865 -0.06682,0.06682 -0.01,0.01992 0.01575,0.05107 0,0.06682 -0.01575,0.01575 -0.05107,-0.01575 -0.06682,0 -0.01575,0.01575 0.01575,0.05107 0,0.06682 -0.01575,0.01575 -0.05107,-0.01575 -0.06682,0 -0.0315,0.0315 0.01992,0.09379 0,0.133635 -0.01409,0.02817 -0.05273,0.03865 -0.06682,0.06682 -0.01,0.01992 0.01,0.0469 0,0.06682 -0.139039,0.278078 0.0046,-0.07143 -0.133635,0.06682 -0.0315,0.0315 0.01409,0.09138 0,0.133635 0.04027,0.120935 -0.10824,0.124269 -0.133634,0.200452 -0.01409,0.04226 0.01992,0.09379 0,0.133635 -0.01,0.01992 -0.05107,-0.01575 -0.06682,0 -0.01575,0.01575 0.01575,0.05107 0,0.06682 -0.01575,0.01575 -0.05107,-0.01575 -0.06682,0 -0.01575,0.01575 0.01,0.0469 0,0.06682 -0.01409,0.02817 -0.05686,0.03693 -0.06682,0.06682 -0.01409,0.04226 0.01992,0.09379 0,0.133635 -0.01,0.01992 -0.05107,-0.01575 -0.06682,0 -0.03522,0.03522 -0.05107,0.08639 -0.06682,0.133635 -0.007,0.02113 0.01575,0.05107 0,0.06682 -0.01575,0.01575 -0.05107,-0.01575 -0.06682,0 -0.0315,0.0315 0.0315,0.102137 0,0.133635 -0.01575,0.01575 -0.05446,-0.01853 -0.06682,0 -0.03907,0.0586 -0.03532,0.137456 -0.06682,0.200452 -0.01409,0.02817 -0.05273,0.03864 -0.06682,0.06682 -0.01,0.01992 0.01,0.0469 0,0.06682 -0.01409,0.02817 -0.05273,0.03864 -0.06682,0.06682 -0.01,0.01992 0.01,0.0469 0,0.06682 -0.01409,0.02817 -0.05273,0.03865 -0.06682,0.06682 -0.01,0.01992 0.01575,0.05107 0,0.06682 -0.01575,0.01575 -0.05107,-0.01575 -0.06682,0 -0.01575,0.01575 0.01,0.0469 0,0.06682 -0.01409,0.02817 -0.04934,0.04061 -0.06682,0.06682 -0.225033,0.337548 -5.03e-4,0.0016 -0.06682,0.200452 -0.01575,0.04725 -0.03919,0.0922 -0.06682,0.133635 -0.01747,0.02621 -0.05686,0.03694 -0.06682,0.06682 -0.01409,0.04226 0.01992,0.09379 0,0.133635 -0.01,0.01992 -0.0469,-0.01 -0.06682,0 -0.02817,0.01409 -0.05273,0.03865 -0.06682,0.06682 -0.01,0.01992 0.01,0.0469 0,0.06682 -0.01409,0.02817 -0.05273,0.03864 -0.06682,0.06682 -0.08881,0.177623 0.08881,-0.04399 0,0.133635 -0.02817,0.05635 -0.105462,0.07729 -0.133634,0.133635 -0.01992,0.03984 0.01992,0.09379 0,0.133634 -0.02817,0.05635 -0.113714,0.07387 -0.133635,0.133635 0,0.378632 0.04454,0.02227 -0.06682,0.133635 -0.01608,0.01608 0.01608,0.251191 0,0.267269 -0.01575,0.01575 -0.05107,-0.01575 -0.06682,0 -0.0315,0.0315 0.0315,0.102137 0,0.133635 -0.01575,0.01575 -0.05107,-0.01575 -0.06682,0 -0.01828,0.01828 0.01812,0.231022 0,0.26727 -0.01409,0.02817 -0.05273,0.03865 -0.06682,0.06682 -0.01324,0.02649 0.01366,0.186792 0,0.200452 -0.01575,0.01575 -0.04454,0 -0.06682,0 -0.02227,0.04454 -0.05107,0.08639 -0.06682,0.133635 -0.01328,0.03984 0,0.336175 0,0.400905 0,0.0223 0.01575,0.0511 0,0.0668 -0.01575,0.0157 -0.05107,-0.0157 -0.06682,0 -0.0021,0.002 0,0.18425 0,0.20045 0,0.1567 0.01575,-0.0315 -0.06682,0.13364 -0.02029,0.0406 0.02029,0.36033 0,0.4009 -0.01409,0.0282 -0.05273,0.0386 -0.06682,0.0668 -0.0086,0.0173 0,0.35354 0,0.4009 0,0.28955 0,0.57909 0,0.86863 0,0.17818 0,0.35636 0,0.53454 0,0.0301 -0.01017,0.18012 0,0.20045 0.02817,0.0564 0.105463,0.0773 0.133635,0.13363 0.02029,0.0406 -0.02029,0.36034 0,0.40091 0.01409,0.0282 0.05273,0.0386 0.06682,0.0668 0.01992,0.0398 -0.01992,0.0938 0,0.13363 0.01409,0.0282 0.05273,0.0387 0.06682,0.0668 0.01,0.0199 -0.01,0.0469 0,0.0668 0.01409,0.0282 0.05273,0.0386 0.06682,0.0668 0.021,0.042 -0.021,0.22528 0,0.26727 0.221606,0.22161 -0.0315,-0.063 0.06682,0.13364 0.01409,0.0282 0.05273,0.0386 0.06682,0.0668 0.01325,0.0265 -0.01366,0.18679 0,0.20045 0.01575,0.0157 0.04454,0 0.06682,0 0.04454,0.0891 0.09664,0.17479 0.133635,0.26727 0.0083,0.0207 -0.01,0.0469 0,0.0668 0.02817,0.0563 0.105463,0.0773 0.133635,0.13364 0.01,0.0199 -0.01575,0.0511 0,0.0668 0.01575,0.0157 0.05107,-0.0157 0.06682,0 0.01575,0.0157 -0.01575,0.0511 0,0.0668 0.01575,0.0157 0.05107,-0.0157 0.06682,0 0.01575,0.0157 -0.01575,0.0511 0,0.0668 0.01575,0.0157 0.05107,-0.0157 0.06682,0 0.138248,0.13825 -0.21126,-0.005 0.06682,0.13364 0.01992,0.01 0.05107,-0.0158 0.06682,0 0.01575,0.0157 -0.01575,0.0511 0,0.0668 0.03341,0.0334 0.167043,-0.0334 0.200452,0 0.01575,0.0157 -0.01575,0.0511 0,0.0668 0.01575,0.0157 0.04455,0 0.06682,0 0.02227,0 0.04454,0 0.06682,0 0.267269,0 0.534539,0 0.801808,0 0.01621,0 0.198304,0.002 0.200453,0 0.01575,-0.0157 -0.01575,-0.0511 0,-0.0668 0.0315,-0.0315 0.102136,0.0315 0.133634,0 0.01575,-0.0157 -0.01575,-0.0511 0,-0.0668 0.01575,-0.0158 0.0469,0.01 0.06682,0 0.02817,-0.0141 0.03865,-0.0527 0.06682,-0.0668 0.01992,-0.01 0.05107,0.0157 0.06682,0 0.01575,-0.0157 -0.01575,-0.0511 0,-0.0668 0.01575,-0.0157 0.0469,0.01 0.06682,0 0.08018,-0.0401 0.120271,-0.16036 0.200452,-0.20045 0.01992,-0.01 0.05107,0.0157 0.06682,0 0.01575,-0.0157 -0.01,-0.0469 0,-0.0668 0.02817,-0.0563 0.105462,-0.0773 0.133634,-0.13363 0.01,-0.0199 -0.01575,-0.0511 0,-0.0668 0.01575,-0.0157 0.05107,0.0157 0.06682,0 0.01575,-0.0157 -0.01575,-0.0511 0,-0.0668 0.01575,-0.0157 0.05107,0.0157 0.06682,0 0.03341,-0.0334 -0.03341,-0.16704 0,-0.20045 0.01575,-0.0157 0.0469,0.01 0.06682,0 0.02817,-0.0141 0.04454,-0.0445 0.06682,-0.0668 0.02227,-0.0223 0.05273,-0.0386 0.06682,-0.0668 0.01324,-0.0265 -0.01366,-0.1868 0,-0.20046 0.01575,-0.0157 0.05107,0.0158 0.06682,0 0.26077,-0.26077 -0.01547,-0.0359 0.06682,-0.20045 0.01409,-0.0282 0.05273,-0.0386 0.06682,-0.0668 0.01,-0.0199 -0.01575,-0.0511 0,-0.0668 0.01575,-0.0158 0.05107,0.0157 0.06682,0 0.01575,-0.0158 -0.01,-0.0469 0,-0.0668 0.01409,-0.0282 0.05273,-0.0386 0.06682,-0.0668 0.02673,-0.0534 -0.02673,-0.147 0,-0.20045 0.01409,-0.0282 0.05273,-0.0387 0.06682,-0.0668 0.01,-0.0199 -0.01575,-0.0511 0,-0.0668 0.01575,-0.0158 0.05107,0.0157 0.06682,0 0.01366,-0.0137 -0.01325,-0.17397 0,-0.20046 0.01409,-0.0282 0.05273,-0.0386 0.06682,-0.0668 0.01,-0.0199 -0.007,-0.0457 0,-0.0668 0.01575,-0.0473 0.05107,-0.0864 0.06682,-0.13364 0.007,-0.0211 -0.01,-0.0469 0,-0.0668 0.01409,-0.0282 0.05273,-0.0387 0.06682,-0.0668 0.02101,-0.042 -0.021,-0.22527 0,-0.26727 0.01408,-0.0282 0.05273,-0.0386 0.06682,-0.0668 0.0099,-0.0199 0,-0.0445 0,-0.0668 0,-0.0446 -0.01408,-0.0914 0,-0.13364 0.0099,-0.0299 0.05686,-0.0369 0.06682,-0.0668 0.01019,-0.0306 -0.01487,-0.23754 0,-0.26727 0.01408,-0.0282 0.05273,-0.0386 0.06682,-0.0668 0.01992,-0.0398 -0.01408,-0.0914 0,-0.13364 0.01574,-0.0472 0.05107,-0.0864 0.06681,-0.13363 0.02162,-0.0648 -0.02217,-0.35657 0,-0.40091 0.01408,-0.0282 0.05273,-0.0386 0.06682,-0.0668 0.0099,-0.0199 0,-0.0445 0,-0.0668 0,-0.0446 0,-0.0891 0,-0.13364 0,-0.13363 0,-0.26727 0,-0.4009 0,-0.46772 0,-0.93545 0,-1.403171 0,-0.734992 0,-1.469983 0,-2.204974 0,-0.02546 -0.0065,-0.327602 0,-0.334087 0.01574,-0.01575 0.05107,0.01575 0.06682,0 0.02167,-0.02166 -0.02119,-0.291678 0,-0.334087 0.01408,-0.02817 0.05273,-0.03864 0.06682,-0.06682 0.0088,-0.01757 0,-0.23233 0,-0.26727 0,-0.334087 0,-0.668173 0,-1.00226 0,-0.02227 0,-0.04454 0,-0.06682 0,-0.02227 -0.01574,-0.05107 0,-0.06682 0.01574,-0.01575 0.05107,0.01575 0.06682,0 0.01609,-0.01608 -0.01609,-0.251191 0,-0.26727 0.01574,-0.01575 0.05107,0.01575 0.06682,0 0.03341,-0.03341 -0.03341,-0.167043 0,-0.200452 0.01574,-0.01575 0.05107,0.01575 0.06682,0 0.01574,-0.01575 0,-0.04454 0,-0.06682 0,-0.111362 0,-0.222725 0,-0.334087 0,-0.02227 -0.01574,-0.05107 0,-0.06682 0.01574,-0.01575 0.05107,0.01575 0.06682,0 0.03341,-0.03341 -0.03341,-0.167044 0,-0.200453 0.01574,-0.01575 0.05107,0.01575 0.06682,0 0.01574,-0.01575 0,-0.04454 0,-0.06682 0,-0.111362 0,-0.222724 0,-0.334087 0,-0.02227 -0.01574,-0.05107 0,-0.06682 0.01574,-0.01575 0.05107,0.01575 0.06682,0 0.03341,-0.03341 -0.03341,-0.167044 0,-0.200452 0.01574,-0.01575 0.05107,0.01575 0.06682,0 0.01574,-0.01575 -0.01574,-0.05107 0,-0.06682 0.01574,-0.01575 0.05107,0.01575 0.06682,0 0.01574,-0.01575 0,-0.04454 0,-0.06682 0,-0.0315 -0.003,-0.331059 0,-0.334087 0.01574,-0.01575 0.05107,0.01575 0.06682,0 0.01574,-0.01575 -0.0099,-0.0469 0,-0.06682 0.01408,-0.02817 0.05273,-0.03865 0.06682,-0.06682 0.01326,-0.02649 -0.01365,-0.186792 0,-0.200452 0.01574,-0.01575 0.05107,0.01575 0.06682,0 0.01828,-0.01828 -0.01812,-0.231022 0,-0.26727 0.01408,-0.02817 0.05273,-0.03864 0.06682,-0.06682 0.01992,-0.03984 -0.0315,-0.102137 0,-0.133635 0.01574,-0.01575 0.05107,0.01575 0.06682,0 0.0315,-0.0315 -0.0315,-0.102136 0,-0.133634 0.01574,-0.01575 0.05107,-0.01575 0.06682,0 0.003,0.003 0,0.302582 0,0.334086 0,0.334087 0,0.668174 0,1.002261 0,1.024533 0,2.049067 0,3.0736 0,0.467721 0,0.935443 0,1.403165 0,0.02454 0.0027,0.26458 0,0.267269 -0.01574,0.01575 -0.05107,-0.01575 -0.06682,0 -0.01574,0.01575 0,0.04454 0,0.06682 0,0.133634 0,0.267269 0,0.400904 0,0.02227 0,0.04454 0,0.06682 0,0.02227 0.01574,0.05107 0,0.06682 -0.01574,0.01575 -0.05107,-0.01575 -0.06682,0 -0.01365,0.01366 0.01326,0.173959 0,0.200452 -0.01408,0.02817 -0.05273,0.03865 -0.06682,0.06682 -0.0087,0.01728 0,0.353544 0,0.400904 0,0.467722 0,0.935444 0,1.403167 0,0.0245 0.0027,0.26459 0,0.26728 -0.01574,0.0157 -0.05107,-0.0158 -0.06682,0 -0.01574,0.0157 0,0.0445 0,0.0668 0,0.11136 0,0.22273 0,0.33409 0,0.46772 0,0.93544 0,1.40317 0,0.0162 0.0021,0.1983 0,0.20045 -0.01574,0.0157 -0.05107,-0.0157 -0.06682,0 -0.02069,0.0207 0.02069,0.31339 0,0.33408 -0.01574,0.0157 -0.05107,-0.0157 -0.06682,0 -0.03341,0.0334 0.03341,0.16705 0,0.20045 -0.01574,0.0158 -0.05107,-0.0157 -0.06682,0 -0.01574,0.0158 0,0.0446 0,0.0668 0,0.17818 0,0.35636 0,0.53454 0,0.0162 -0.0021,0.1983 0,0.20045 0.0067,0.007 0.193771,0.007 0.200451,0 0.01574,-0.0157 -0.01574,-0.0511 0,-0.0668 0.01574,-0.0158 0.05107,0.0157 0.06682,0 0.01574,-0.0158 0,-0.0446 0,-0.0668 0,-0.0223 0.01574,-0.0511 0,-0.0668 -0.0315,-0.0315 -0.133636,0.0446 -0.133636,0 0,-0.0223 0.05107,-0.0157 0.06682,0 0.01574,0.0158 -0.01574,0.0511 0,0.0668 0.134155,0.13415 -5.29e-4,-0.13416 0.133636,0 0.01574,0.0157 -0.01574,0.0511 0,0.0668 0.01574,0.0157 0.05107,-0.0158 0.06682,0 0.01574,0.0157 -0.01574,0.0511 0,0.0668 0.138249,0.13825 -0.0054,-0.21126 0.133639,0.0668 0.01,0.0199 -0.0157,0.0511 0,0.0668 0.0315,0.0315 0.0938,-0.0199 0.13363,0 0.12301,0.0615 0.0106,0.13895 0.13363,0.20045 0.0199,0.01 0.0469,-0.01 0.0668,0 0.0563,0.0282 0.0773,0.10546 0.13364,0.13364 0.0199,0.01 0.0511,-0.0157 0.0668,0 0.0157,0.0157 -0.0158,0.0511 0,0.0668 0.13824,0.13825 -0.005,-0.21126 0.13363,0.0668 0.01,0.0199 -0.0157,0.0511 0,0.0668 0.0894,0.0894 0.0442,-0.0894 0.13364,0 0.0157,0.0157 -0.0157,0.0511 0,0.0668 0.0157,0.0157 0.0511,-0.0157 0.0668,0 0.0157,0.0157 -0.0157,0.0511 0,0.0668 0.0315,0.0315 0.10214,-0.0315 0.13364,0 0.0157,0.0157 -0.0158,0.0511 0,0.0668 0.0157,0.0157 0.0511,-0.0157 0.0668,0 0.0157,0.0157 -0.0157,0.0511 0,0.0668 0.0157,0.0157 0.0511,-0.0157 0.0668,0 0.0157,0.0157 -0.0157,0.0511 0,0.0668 0.0315,0.0315 0.10214,-0.0315 0.13364,0 0.0157,0.0157 0,0.0446 0,0.0668 0.0223,0 0.0511,-0.0157 0.0668,0 0.0157,0.0157 -0.0157,0.0511 0,0.0668 0.15652,0.15651 -0.0229,-0.15651 0.13364,0 0.0157,0.0157 -0.0157,0.0511 0,0.0668 0.0157,0.0157 0.0469,-0.01 0.0668,0 0.0282,0.0141 0.0386,0.0527 0.0668,0.0668 0.0199,0.01 0.0511,-0.0157 0.0668,0 0.0157,0.0157 -0.0157,0.0511 0,0.0668 0.0157,0.0157 0.0445,0 0.0668,0 0.0223,0 0.0445,0 0.0668,0 0.0474,0 0.38363,-0.009 0.4009,0 0.0282,0.0141 0.0387,0.0527 0.0668,0.0668 0.0173,0.009 0.35354,0 0.4009,0 0.0223,0 0.0446,0 0.0668,0 0.0223,0 0.0511,-0.0157 0.0668,0 0.0157,0.0157 -0.0157,0.0511 0,0.0668 0.0157,0.0157 0.0445,0 0.0668,0 0.13364,0 0.26727,0 0.40091,0 0.15591,0 0.31181,0 0.46772,0 0.0301,0 0.18012,0.0102 0.20045,0 0.0282,-0.0141 0.0386,-0.0527 0.0668,-0.0668 0.0265,-0.0133 0.18679,0.0136 0.20045,0 0.0157,-0.0157 -0.0157,-0.0511 0,-0.0668 0.0315,-0.0315 0.0938,0.0199 0.13364,0 0.0282,-0.0141 0.0386,-0.0527 0.0668,-0.0668 0.0223,0 0.0446,0 0.0668,0 0.0223,0 0.0469,0.01 0.0668,0 0.0282,-0.0141 0.0386,-0.0527 0.0668,-0.0668 0.0399,-0.0199 0.10214,0.0315 0.13364,0 0,-0.17818 -0.0223,0.0223 0.0668,-0.0668 0.0157,-0.0157 -0.0157,-0.0511 0,-0.0668 0.0183,-0.0183 0.23102,0.0181 0.26727,0 0.0282,-0.0141 0.0386,-0.0527 0.0668,-0.0668 0.0199,-0.01 0.0511,0.0157 0.0668,0 0.0158,-0.0157 -0.0157,-0.0511 0,-0.0668 0.0334,-0.0334 0.16705,0.0334 0.20045,0 0.0157,-0.0157 -0.0157,-0.0511 0,-0.0668 0.0157,-0.0157 0.0469,0.01 0.0668,0 0.0282,-0.0141 0.0386,-0.0527 0.0668,-0.0668 0.0199,-0.01 0.0511,0.0157 0.0668,0 0.0157,-0.0157 -0.0158,-0.0511 0,-0.0668 0.0223,0 0.0445,0 0.0668,0 0.0223,0 0.0511,0.0157 0.0668,0 0.0157,-0.0157 -0.01,-0.0469 0,-0.0668 0.0512,-0.10234 0.11907,-0.0523 0.20045,-0.13364 0.0157,-0.0157 -0.0157,-0.0511 0,-0.0668 0.0157,-0.0157 0.0469,0.01 0.0668,0 0.0178,-0.009 0.19158,-0.18271 0.20045,-0.20046 0.01,-0.0199 -0.0157,-0.0511 0,-0.0668 0.0157,-0.0157 0.0469,0.01 0.0668,0 0.0592,-0.0296 0.13963,-0.15991 0.20045,-0.20046 0.0414,-0.0276 0.0984,-0.0316 0.13364,-0.0668 0.0352,-0.0352 0.0392,-0.0922 0.0668,-0.13364 0.0175,-0.0262 0.0527,-0.0386 0.0668,-0.0668 0.01,-0.0199 -0.0157,-0.0511 0,-0.0668 0.0157,-0.0157 0.0511,0.0157 0.0668,0 0.0157,-0.0157 -0.0157,-0.0511 0,-0.0668 0.0157,-0.0157 0.0511,0.0157 0.0668,0 0.0157,-0.0157 -0.0124,-0.0483 0,-0.0668 0.0349,-0.0524 0.0891,-0.0891 0.13363,-0.13363 0.0223,-0.0223 0.0527,-0.0387 0.0668,-0.0668 0.01,-0.0199 -0.0157,-0.0511 0,-0.0668 0.13825,-0.13825 -0.005,0.21126 0.13363,-0.0668 0.0199,-0.0398 -0.0315,-0.10213 0,-0.13363 0.0158,-0.0157 0.0511,0.0157 0.0668,0 0.0352,-0.0352 0.0316,-0.0984 0.0668,-0.13363 0.0157,-0.0157 0.0511,0.0157 0.0668,0 0.0315,-0.0315 -0.0199,-0.0938 0,-0.13364 0.0282,-0.0563 0.10547,-0.0773 0.13364,-0.13363 0.0199,-0.0398 -0.0199,-0.0938 0,-0.13364 0.0141,-0.0282 0.0446,-0.0445 0.0668,-0.0668 0.0223,-0.0223 0.0386,-0.0527 0.0668,-0.0668 0.0199,-0.01 0.0511,0.0157 0.0668,0 0.0315,-0.0315 -0.0199,-0.0938 0,-0.13364 0.0282,-0.0563 0.10546,-0.0773 0.13364,-0.13363 0.0199,-0.0398 -0.0315,-0.10214 0,-0.13364 0.0157,-0.0157 0.0511,0.0157 0.0668,0 0.0157,-0.0157 -0.01,-0.0469 0,-0.0668 0.0141,-0.0282 0.0527,-0.0386 0.0668,-0.0668 0.01,-0.0199 -0.0157,-0.0511 0,-0.0668 0.0157,-0.0157 0.0511,0.0157 0.0668,0 0.0315,-0.0315 -0.0199,-0.0938 0,-0.13363 0.13904,-0.27808 -0.005,0.0714 0.13363,-0.0668 0.0315,-0.0315 -0.0315,-0.10214 0,-0.13364 0.0157,-0.0157 0.0511,0.0157 0.0668,0 0.0315,-0.0315 -0.0315,-0.10213 0,-0.13363 0.0157,-0.0157 0.0511,0.0157 0.0668,0 0.0157,-0.0157 -0.0157,-0.0511 0,-0.0668 0.0157,-0.0157 0.0511,0.0157 0.0668,0 0.0157,-0.0157 -0.01,-0.0469 0,-0.0668 0.0141,-0.0282 0.0527,-0.0386 0.0668,-0.0668 0.0199,-0.0398 -0.0315,-0.10214 0,-0.13364 0.0157,-0.0157 0.0511,0.0157 0.0668,0 0.0157,-0.0157 -0.01,-0.0469 0,-0.0668 0.0141,-0.0282 0.0527,-0.0387 0.0668,-0.0668 0.01,-0.0199 -0.0157,-0.0511 0,-0.0668 0.0157,-0.0157 0.0511,0.0157 0.0668,0 0.0315,-0.0315 -0.0199,-0.0938 0,-0.13363 0.0141,-0.0282 0.0527,-0.0387 0.0668,-0.0668 0.01,-0.0199 -0.0157,-0.0511 0,-0.0668 0.0158,-0.0157 0.0511,0.0157 0.0668,0 0.0157,-0.0157 -0.0157,-0.0511 0,-0.0668 0.0157,-0.0157 0.0511,0.0157 0.0668,0 0.0207,-0.0207 -0.0207,-0.31339 0,-0.33408 0.13824,-0.138259 -0.005,0.21126 0.13363,-0.06682 0.0267,-0.05345 -0.0267,-0.146998 0,-0.200452 0.0401,-0.08018 0.16036,-0.120271 0.20045,-0.200452 0.0267,-0.05345 -0.0267,-0.146998 0,-0.200452 0.0141,-0.02817 0.0527,-0.03864 0.0668,-0.06682 0.01,-0.01992 -0.01,-0.0469 0,-0.06682 0.0141,-0.02817 0.0569,-0.03693 0.0668,-0.06682 0.0161,-0.04835 -0.022,-0.245244 0,-0.26727 0.0157,-0.01575 0.0511,0.01575 0.0668,0 0.0315,-0.0315 -0.0199,-0.09379 0,-0.133634 0.0141,-0.02817 0.0527,-0.03865 0.0668,-0.06682 0.0267,-0.05345 -0.0267,-0.146998 0,-0.200452 0.0826,-0.165132 0.0668,0.02306 0.0668,-0.133635"
       style="fill:none;stroke:#000000;stroke-width:0.26458332px;stroke-linecap:butt;stroke-linejoin:miter;stroke-opacity:1" />
  </g>
</svg>
