 <svg
      className="w-full h-full"
      width="100"
      height="100"
      viewBox="0 0 100 100"
      xmlns="http://www.w3.org/2000/svg"
    >
      {/* Outermost heart */}
      <path
        d="M50 30 Q55 10, 80 20 Q100 30, 75 60 L50 90 L25 60 Q0 30, 20 20 Q45 10, 50 30 Z"
        fill="none"
        stroke={color}
        strokeWidth="2"
      />
      {/* Middle heart */}
      <path
        d="M50 35 Q53 20, 70 27 Q85 35, 65 55 L50 75 L35 55 Q15 35, 30 27 Q47 20, 50 35 Z"
        fill="none"
        stroke={color}
        strokeWidth="2"
      />
      {/* Innermost heart */}
      <path
        d="M50 40 Q52 30, 60 34 Q70 40, 55 50 L50 55 L45 50 Q30 40, 40 34 Q48 30, 50 40 Z"
        fill="none"
        stroke={color}
        strokeWidth="2"
      />
    </svg>