<?xml version="1.0" encoding="UTF-8" standalone="no"?>
<!-- Created with Inkscape (http://www.inkscape.org/) -->

<svg
   version="1.1"
   id="svg1"
   width="377"
   height="579"
   viewBox="0 0 377 579"
   xmlns="http://www.w3.org/2000/svg"
   xmlns:svg="http://www.w3.org/2000/svg">
  <defs
     id="defs1" />
  <g
     id="g1"
     style="fill:#ffb5e1;fill-opacity:1">
    <path
       style="fill:#ffb5e1;fill-opacity:1"
       d="M 96.222517,577.95916 C 90.286544,576.75982 82.235706,572.17558 79.295452,568.32071 74.48145,562.00923 72.068793,549.47177 66.532966,502 63.389735,481.00087 8.9433329,108.22921 112.62115,158.53611 c 10.65924,5.17212 18.4583,14.42846 22.29753,26.46389 16.17686,50.71213 1.65762,342.90747 -10.80653,376 -4.93059,13.09082 -15.43158,19.47627 -27.889633,16.95916 z M 182.10853,357.25 c 0.0597,-7.0125 0.3972,-15.45 0.75,-18.75 0.62925,-5.88574 0.72907,-6.04761 5.2418,-8.5 5.9825,-3.25111 40.21919,-27.24954 60.70659,-57.41207 C 269.81611,241.65726 279.76521,197.3491 262.7606,161.90832 216.38873,65.260639 42.446519,82.815899 24.482802,194.45004 22.584274,206.2483 20.865255,210.74437 17.82251,211.86995 11.753253,214.11512 7.4299835,209.4876 4.1133568,197.19601 -0.73537352,179.22637 -0.72810838,165.23056 4.655396,148.68833 38.972341,43.240532 223.81626,-82.930768 344.12169,76.40162 c 40.65989,53.84995 44.48768,148.05904 1.4237,214.09838 -17.81599,27.32116 -53.82824,66.25025 -150.51553,77.98635 -6.85858,0.83251 -12.59608,1.51365 -12.75,1.51365 -0.15392,0 -0.23102,-5.7375 -0.17133,-12.75 z"
       id="path1" />
  </g>
</svg>
